<svg width="145" height="145" viewBox="0 0 145 145" fill="none" xmlns="http://www.w3.org/2000/svg">
<g filter="url(#filter0_d_0_1)">
<circle cx="72.5" cy="72.5" r="67.5" fill="white"/>
</g>
<path d="M94.4225 64.7072C93.4303 63.8167 93.9365 63.068 93.9776 62.3595C94.3133 56.8007 94.3953 51.2555 92.5676 45.879C91.6302 43.1199 90.0354 40.8869 87.0443 40.0369C84.0533 39.1869 83.1432 39.8683 83.1363 42.9175C83.1363 54.6153 83.1842 66.3128 83.075 77.9971C83.0651 79.4334 82.7586 80.8526 82.1747 82.1684C81.5908 83.4842 80.741 84.6694 79.6776 85.6515C78.6142 86.6331 77.3588 87.3913 75.9886 87.8799C74.6182 88.3686 73.1613 88.5774 71.7064 88.4929C65.9573 88.2165 61.8644 84.3104 61.1252 78.374C60.5161 73.4693 64.1367 68.5113 69.3864 67.0475C71.0418 66.618 72.7552 66.445 74.4647 66.5347C75.9021 66.5752 76.7302 66.076 76.6891 64.511C76.6343 62.3252 76.6412 60.1327 76.6891 57.947C76.6891 56.5032 76.0046 56.0917 74.6357 56.0512C61.2553 55.6937 51.1874 63.8768 50.503 76.6269C49.8186 89.1137 59.4347 97.6068 69.2973 98.8279C82.808 100.508 91.6233 90.665 93.3413 82.2461C94.1625 78.2594 93.6424 74.1915 93.7314 70.1572C93.7996 66.9327 96.6675 65.2867 99.6175 66.7843C99.8894 66.9095 100.116 67.1135 100.268 67.3692C100.42 67.6247 100.489 67.92 100.466 68.2153C100.548 76.1888 101.151 84.1696 96.7975 91.5563C90.5965 102.141 77.3803 107.882 65.4029 104.832C59.3537 103.34 53.9685 99.932 50.0739 95.1317C46.1793 90.3313 43.9906 84.4042 43.8436 78.2594C43.3508 61.5897 57.9358 49.2512 72.5893 49.7302C76.696 49.8653 76.696 49.7302 76.696 45.595V25.3981C76.696 23.5092 76.9149 21.7552 79.0571 21.1481C81.1993 20.5409 82.3972 21.8901 83.2663 23.5699C85.4495 27.8536 88.8785 31.1119 92.2873 34.4445C96.2636 38.3032 98.7548 42.9175 99.2136 48.429C99.7129 54.3993 97.9133 59.7288 94.4225 64.7072Z" fill="black"/>
<defs>
<filter id="filter0_d_0_1" x="0" y="0" width="145" height="145" filterUnits="userSpaceOnUse" color-interpolation-filters="sRGB">
<feFlood flood-opacity="0" result="BackgroundImageFix"/>
<feColorMatrix in="SourceAlpha" type="matrix" values="0 0 0 0 0 0 0 0 0 0 0 0 0 0 0 0 0 0 127 0" result="hardAlpha"/>
<feOffset/>
<feGaussianBlur stdDeviation="2.5"/>
<feComposite in2="hardAlpha" operator="out"/>
<feColorMatrix type="matrix" values="0 0 0 0 0 0 0 0 0 0 0 0 0 0 0 0 0 0 0.25 0"/>
<feBlend mode="normal" in2="BackgroundImageFix" result="effect1_dropShadow_0_1"/>
<feBlend mode="normal" in="SourceGraphic" in2="effect1_dropShadow_0_1" result="shape"/>
</filter>
</defs>
</svg>
