<svg width="145" height="145" viewBox="0 0 145 145" fill="none" xmlns="http://www.w3.org/2000/svg">
<g filter="url(#filter0_d_0_1)">
<circle cx="72.5" cy="72.5" r="67.5" fill="white"/>
</g>
<g clip-path="url(#clip0_0_1)">
<mask id="mask0_0_1" style="mask-type:luminance" maskUnits="userSpaceOnUse" x="33" y="33" width="80" height="80">
<path d="M113 33H33V113H113V33Z" fill="white"/>
</mask>
<g mask="url(#mask0_0_1)">
<path d="M113 73.0233C112.982 95.1746 94.9463 113.207 72.6101 112.998C50.6155 112.792 32.9902 94.8727 33 72.9827C33.0098 50.9174 50.9469 32.9792 73.0128 33C95.0789 33.0209 113.016 50.9567 113 73.0233ZM93.2193 75.6314C92.5418 81.0567 90.1313 85.498 85.8439 88.825C81.5566 92.1519 76.6533 93.4702 71.2381 93.0195C71.0612 94.7206 70.8933 96.3491 70.7239 97.9777C85.1393 99.5521 97.2058 88.6582 98.1745 76.1159L93.2193 75.6314ZM71.19 64.1825V59.1508L54.2928 58.914V63.9456L71.19 64.1825Z" fill="black"/>
</g>
</g>
<defs>
<filter id="filter0_d_0_1" x="0" y="0" width="145" height="145" filterUnits="userSpaceOnUse" color-interpolation-filters="sRGB">
<feFlood flood-opacity="0" result="BackgroundImageFix"/>
<feColorMatrix in="SourceAlpha" type="matrix" values="0 0 0 0 0 0 0 0 0 0 0 0 0 0 0 0 0 0 127 0" result="hardAlpha"/>
<feOffset/>
<feGaussianBlur stdDeviation="2.5"/>
<feComposite in2="hardAlpha" operator="out"/>
<feColorMatrix type="matrix" values="0 0 0 0 0 0 0 0 0 0 0 0 0 0 0 0 0 0 0.25 0"/>
<feBlend mode="normal" in2="BackgroundImageFix" result="effect1_dropShadow_0_1"/>
<feBlend mode="normal" in="SourceGraphic" in2="effect1_dropShadow_0_1" result="shape"/>
</filter>
<clipPath id="clip0_0_1">
<rect width="80" height="80" fill="white" transform="translate(33 33)"/>
</clipPath>
</defs>
</svg>
