<svg width="145" height="145" viewBox="0 0 145 145" fill="none" xmlns="http://www.w3.org/2000/svg">
<g filter="url(#filter0_d_0_1)">
<circle cx="72.5" cy="72.5" r="67.5" fill="white"/>
</g>
<mask id="mask0_0_1" style="mask-type:luminance" maskUnits="userSpaceOnUse" x="25" y="56" width="98" height="34">
<path d="M123 56H25V89.325H123V56Z" fill="white"/>
</mask>
<g mask="url(#mask0_0_1)">
<path d="M97.9528 67.6865V67.7268C97.9401 74.1652 92.8005 79.4018 86.4966 79.4018C84.3533 79.4018 82.2971 78.8706 80.3845 77.8227C80.1707 77.7047 79.955 77.5795 79.7435 77.4485C79.1715 77.0944 78.764 76.5086 78.6261 75.8421C78.4878 75.1772 78.6261 74.4761 79.0064 73.9191L83.9233 66.6976C84.4785 65.8815 85.5766 65.68 86.3756 66.2471C87.1746 66.8142 87.372 67.9355 86.8169 68.7517L82.6071 74.9339C83.8403 75.5111 85.1466 75.8033 86.4966 75.8033C90.8625 75.8033 94.421 72.1774 94.4294 67.7196V67.6865C94.4294 65.5763 93.6403 63.577 92.2087 62.0556C90.7767 60.5356 88.8575 59.6647 86.8056 59.6043C81.3176 59.4402 78.6163 63.7137 75.4887 68.6638L75.4718 68.6897C72.2955 73.7176 68.7032 79.4018 61.5074 79.4018C61.3707 79.4018 61.2326 79.4003 61.093 79.396C58.1138 79.3068 55.3291 78.0444 53.2532 75.8421C51.1858 73.6485 50.0471 70.7625 50.0471 67.7153V67.6764C50.0612 61.238 55.1994 56 61.5031 56C63.6467 56 65.7042 56.5326 67.6152 57.5805C67.8308 57.6985 68.0464 57.8237 68.2564 57.9547C68.8286 58.3088 69.2359 58.8946 69.3754 59.5611C69.5135 60.2261 69.3754 60.9256 68.9949 61.4827L64.0765 68.7056C63.5212 69.5217 62.4234 69.7232 61.6257 69.1561C60.8267 68.5876 60.6294 67.4663 61.1847 66.6516L65.3942 60.4693C64.161 59.8907 62.8546 59.5985 61.5031 59.5985C57.1386 59.5985 53.5802 63.2258 53.5703 67.6836V67.7153C53.5703 69.8269 54.3595 71.8262 55.7927 73.3462C57.2246 74.8677 59.144 75.7385 61.1959 75.799C61.2974 75.8018 61.3988 75.8033 61.4989 75.8033C66.7837 75.8033 69.4417 71.5959 72.5126 66.7394L72.5281 66.712C75.7649 61.5892 79.4364 55.7841 86.9083 56.0072C89.8877 56.095 92.6706 57.3574 94.7469 59.5611C96.8143 61.7547 97.9528 64.6407 97.9528 67.6865Z" fill="black"/>
<path d="M36.4589 56.0029C30.1819 56.0029 25.0676 61.1862 25.0042 67.5829C25.0014 67.6218 25 67.6621 25 67.7024V87.5258C25 88.519 25.7892 89.3251 26.7616 89.3251C27.734 89.3251 28.5232 88.519 28.5232 87.5258V76.1344C30.5836 78.1596 33.381 79.4047 36.4589 79.4047C42.7767 79.4047 47.9163 74.1567 47.9163 67.7038C47.9163 61.251 42.7767 56.0029 36.4589 56.0029ZM36.4589 75.8062C32.0845 75.8062 28.526 72.1717 28.526 67.7038C28.526 63.2359 32.0845 59.6014 36.4589 59.6014C40.8333 59.6014 44.3931 63.2359 44.3931 67.7038C44.3931 72.1717 40.8347 75.8062 36.4589 75.8062Z" fill="black"/>
<path d="M111.544 56.0029C105.226 56.0029 100.086 61.2524 100.086 67.7038C100.086 74.1552 105.226 79.4047 111.544 79.4047C114.62 79.4047 117.416 78.1611 119.477 76.1373V87.5258C119.477 88.519 120.266 89.3251 121.238 89.3251C122.211 89.3251 123 88.519 123 87.5258V67.7009C122.999 61.251 117.859 56.0029 111.544 56.0029ZM111.544 75.8062C107.169 75.8062 103.61 72.1717 103.61 67.7038C103.61 63.2359 107.169 59.6014 111.544 59.6014C115.918 59.6014 119.475 63.2345 119.477 67.7024C119.477 72.1717 115.918 75.8062 111.544 75.8062Z" fill="black"/>
</g>
<defs>
<filter id="filter0_d_0_1" x="0" y="0" width="145" height="145" filterUnits="userSpaceOnUse" color-interpolation-filters="sRGB">
<feFlood flood-opacity="0" result="BackgroundImageFix"/>
<feColorMatrix in="SourceAlpha" type="matrix" values="0 0 0 0 0 0 0 0 0 0 0 0 0 0 0 0 0 0 127 0" result="hardAlpha"/>
<feOffset/>
<feGaussianBlur stdDeviation="2.5"/>
<feComposite in2="hardAlpha" operator="out"/>
<feColorMatrix type="matrix" values="0 0 0 0 0 0 0 0 0 0 0 0 0 0 0 0 0 0 0.25 0"/>
<feBlend mode="normal" in2="BackgroundImageFix" result="effect1_dropShadow_0_1"/>
<feBlend mode="normal" in="SourceGraphic" in2="effect1_dropShadow_0_1" result="shape"/>
</filter>
</defs>
</svg>
