<svg width="145" height="145" viewBox="0 0 145 145" fill="none" xmlns="http://www.w3.org/2000/svg">
<g filter="url(#filter0_d_0_1)">
<circle cx="72.5" cy="72.5" r="67.5" fill="white"/>
</g>
<path d="M56.9871 81.8843C55.5637 81.8843 54.4194 83.0279 54.4194 84.4504C54.4194 85.8451 55.5637 87.0166 56.9871 87.0166C58.3826 87.0166 59.5549 85.873 59.5549 84.4504C59.5269 83.0279 58.3826 81.8843 56.9871 81.8843Z" fill="black"/>
<path d="M56.9871 89.5547C55.5637 89.5547 54.4194 90.6983 54.4194 92.1208C54.4194 93.5155 55.5637 94.687 56.9871 94.687C58.3826 94.687 59.5549 93.5434 59.5549 92.1208C59.5549 90.6983 58.3826 89.5547 56.9871 89.5547Z" fill="black"/>
<path d="M56.9871 74.2139C55.5637 74.2139 54.4194 75.3575 54.4194 76.78C54.4194 78.2026 55.5637 79.3462 56.9871 79.3462C58.3826 79.3462 59.5549 78.2026 59.5549 76.78C59.5269 75.3575 58.3826 74.2139 56.9871 74.2139Z" fill="black"/>
<path d="M56.9871 66.5708C55.5637 66.5708 54.4194 67.7144 54.4194 69.137C54.4194 70.5595 55.5637 71.7031 56.9871 71.7031C58.3826 71.7031 59.5549 70.5595 59.5549 69.137C59.5549 67.7144 58.3826 66.5708 56.9871 66.5708Z" fill="black"/>
<path d="M56.9871 58.8999C55.5637 58.8999 54.4194 60.0435 54.4194 61.4661C54.4194 62.8607 55.5637 64.0322 56.9871 64.0322C58.3826 64.0322 59.5549 62.8886 59.5549 61.4661C59.5269 60.0435 58.3826 58.8999 56.9871 58.8999Z" fill="black"/>
<path d="M56.9871 51.2573C55.5637 51.2573 54.4194 52.4009 54.4194 53.8235C54.4194 55.246 55.5637 56.3896 56.9871 56.3896C58.3826 56.3896 59.5549 55.246 59.5549 53.8235C59.5269 52.4288 58.3826 51.2573 56.9871 51.2573Z" fill="black"/>
<path d="M56.9871 43.6426C55.5637 43.6426 54.4194 44.7862 54.4194 46.2087C54.4194 47.6313 55.5637 48.7749 56.9871 48.7749C58.3826 48.7749 59.5549 47.6313 59.5549 46.2087C59.5269 44.7862 58.3826 43.6426 56.9871 43.6426Z" fill="black"/>
<path d="M50.5677 64.0322C51.9858 64.0322 53.1354 62.8833 53.1354 61.4661C53.1354 60.0488 51.9858 58.8999 50.5677 58.8999C49.1496 58.8999 48 60.0488 48 61.4661C48 62.8833 49.1496 64.0322 50.5677 64.0322Z" fill="black"/>
<path d="M50.5677 51.2573C49.1443 51.2573 48 52.4009 48 53.8235C48 55.246 49.1443 56.3896 50.5677 56.3896C51.9911 56.3896 53.1354 55.246 53.1354 53.8235C53.1354 52.4288 51.9911 51.2573 50.5677 51.2573Z" fill="black"/>
<path d="M50.5677 43.6426C49.1443 43.6426 48 44.7862 48 46.2087C48 47.6034 49.1443 48.7749 50.5677 48.7749C51.9911 48.7749 53.1354 47.6313 53.1354 46.2087C53.1354 44.7862 51.9911 43.6426 50.5677 43.6426Z" fill="black"/>
<path d="M50.5677 81.8843C49.1443 81.8843 48 83.0279 48 84.4504C48 85.8451 49.1443 87.0166 50.5677 87.0166C51.9911 87.0166 53.1354 85.873 53.1354 84.4504C53.1354 83.0279 51.9911 81.8843 50.5677 81.8843Z" fill="black"/>
<path d="M50.5677 89.5547C49.1443 89.5547 48 90.6983 48 92.1208C48 93.5434 49.1443 94.687 50.5677 94.687C51.9911 94.687 53.1354 93.5434 53.1354 92.1208C53.1354 90.6983 51.9911 89.5547 50.5677 89.5547Z" fill="black"/>
<path d="M50.5677 74.2139C49.1443 74.2139 48 75.3575 48 76.78C48 78.1747 49.1443 79.3462 50.5677 79.3462C51.9911 79.3462 53.1354 78.2026 53.1354 76.78C53.1354 75.3575 51.9911 74.2139 50.5677 74.2139Z" fill="black"/>
<path d="M50.5677 71.6753C51.9858 71.6753 53.1354 70.5264 53.1354 69.1091C53.1354 67.6919 51.9858 66.543 50.5677 66.543C49.1496 66.543 48 67.6919 48 69.1091C48 70.5264 49.1496 71.6753 50.5677 71.6753Z" fill="black"/>
<path d="M56.9871 104.867C55.5637 104.867 54.4194 106.011 54.4194 107.433C54.4194 108.856 55.5637 109.999 56.9871 109.999C58.3826 109.999 59.5549 108.856 59.5549 107.433C59.5269 106.011 58.3826 104.867 56.9871 104.867Z" fill="black"/>
<path d="M56.9871 97.1968C55.5637 97.1968 54.4194 98.3404 54.4194 99.7629C54.4194 101.185 55.5637 102.329 56.9871 102.329C58.3826 102.329 59.5549 101.185 59.5549 99.7629C59.5269 98.3404 58.3826 97.1968 56.9871 97.1968Z" fill="black"/>
<path d="M50.5677 97.1968C49.1443 97.1968 48 98.3404 48 99.7629C48 101.158 49.1443 102.329 50.5677 102.329C51.9911 102.329 53.1354 101.185 53.1354 99.7629C53.1354 98.3404 51.9911 97.1968 50.5677 97.1968Z" fill="black"/>
<path d="M95.3631 36.0278C93.9397 36.0278 92.7954 37.1714 92.7954 38.594C92.7954 40.0165 93.9397 41.1601 95.3631 41.1601C96.7865 41.1601 97.9308 40.0165 97.9308 38.594C97.9308 37.1714 96.7865 36.0278 95.3631 36.0278Z" fill="black"/>
<path d="M88.9718 43.6426C87.5763 43.6426 86.4041 44.7862 86.4041 46.2087C86.4041 47.6313 87.5484 48.7749 88.9718 48.7749C90.3952 48.7749 91.5395 47.6313 91.5395 46.2087C91.5395 44.7862 90.3952 43.6426 88.9718 43.6426Z" fill="black"/>
<path d="M82.5523 43.6426C81.1289 43.6426 79.9846 44.7862 79.9846 46.2087C79.9846 47.6313 81.1289 48.7749 82.5523 48.7749C83.9757 48.7749 85.12 47.6313 85.12 46.2087C85.12 44.7862 83.9478 43.6426 82.5523 43.6426Z" fill="black"/>
<path d="M76.1331 43.6426C74.7097 43.6426 73.5654 44.7862 73.5654 46.2087C73.5654 47.6313 74.7097 48.7749 76.1331 48.7749C77.5286 48.7749 78.7008 47.6313 78.7008 46.2087C78.7008 44.7862 77.5565 43.6426 76.1331 43.6426Z" fill="black"/>
<path d="M69.77 43.6426C68.3466 43.6426 67.2021 44.7862 67.2021 46.2087C67.2021 47.6313 68.3466 48.7749 69.77 48.7749C71.1934 48.7749 72.3377 47.6313 72.3377 46.2087C72.3377 44.7862 71.1655 43.6426 69.77 43.6426Z" fill="black"/>
<path d="M63.3785 43.6426C61.983 43.6426 60.8108 44.7862 60.8108 46.2087C60.8108 47.6313 61.9551 48.7749 63.3785 48.7749C64.8019 48.7749 65.9462 47.6313 65.9462 46.2087C65.9183 44.7862 64.774 43.6426 63.3785 43.6426Z" fill="black"/>
<path d="M69.77 41.1323C71.1934 41.1323 72.3377 39.9887 72.3377 38.5662C72.3377 37.1715 71.1934 36 69.77 36C68.3466 36 67.2021 37.1436 67.2021 38.5662C67.2021 39.9887 68.3466 41.1323 69.77 41.1323Z" fill="black"/>
<path d="M63.3785 41.1323C64.8019 41.1323 65.9462 39.9887 65.9462 38.5662C65.9462 37.1715 64.8019 36 63.3785 36C61.983 36 60.8108 37.1436 60.8108 38.5662C60.8108 39.9887 61.9551 41.1323 63.3785 41.1323Z" fill="black"/>
<path d="M56.9871 41.1323C58.3826 41.1323 59.5549 39.9887 59.5549 38.5662C59.5549 37.1715 58.4105 36 56.9871 36C55.5637 36 54.4194 37.1436 54.4194 38.5662C54.4194 39.9887 55.5637 41.1323 56.9871 41.1323Z" fill="black"/>
<path d="M91.5395 38.5662C91.5395 37.1715 90.3952 36 88.9718 36C87.5763 36 86.4041 37.1436 86.4041 38.5662C86.4041 39.9887 87.5484 41.1323 88.9718 41.1323C90.3952 41.1323 91.5395 39.9887 91.5395 38.5662Z" fill="black"/>
<path d="M85.0922 38.5662C85.0922 37.1715 83.9479 36 82.5245 36C81.1011 36 79.9568 37.1436 79.9568 38.5662C79.9568 39.9887 81.1011 41.1323 82.5245 41.1323C83.9479 41.1323 85.0922 39.9887 85.0922 38.5662Z" fill="black"/>
<path d="M76.1331 41.1323C77.5565 41.1323 78.7008 39.9887 78.7008 38.5662C78.7008 37.1715 77.5565 36 76.1331 36C74.7097 36 73.5654 37.1436 73.5654 38.5662C73.5933 39.9887 74.7376 41.1323 76.1331 41.1323Z" fill="black"/>
<path d="M76.1612 74.2139C74.7378 74.2139 73.5935 75.3575 73.5935 76.78C73.5935 78.2026 74.7378 79.3462 76.1612 79.3462C77.5567 79.3462 78.7289 78.2026 78.7289 76.78C78.701 75.3575 77.5567 74.2139 76.1612 74.2139Z" fill="black"/>
<path d="M69.77 74.2139C68.3466 74.2139 67.2021 75.3575 67.2021 76.78C67.2021 78.2026 68.3466 79.3462 69.77 79.3462C71.1934 79.3462 72.3377 78.2026 72.3377 76.78C72.3098 75.3575 71.1655 74.2139 69.77 74.2139Z" fill="black"/>
<path d="M63.3785 74.2139C61.983 74.2139 60.8108 75.3575 60.8108 76.78C60.8108 78.2026 61.9551 79.3462 63.3785 79.3462C64.8019 79.3462 65.9462 78.2026 65.9462 76.78C65.9183 75.3575 64.774 74.2139 63.3785 74.2139Z" fill="black"/>
<path d="M78.7008 69.1091C78.7008 67.7145 77.5565 66.543 76.1331 66.543C74.7097 66.543 73.5654 67.6866 73.5654 69.1091C73.5654 70.5317 74.7097 71.6753 76.1331 71.6753C77.5565 71.6753 78.7008 70.5317 78.7008 69.1091Z" fill="black"/>
<path d="M72.3095 69.1091C72.3095 67.7145 71.1652 66.543 69.7418 66.543C68.3463 66.543 67.1741 67.6866 67.1741 69.1091C67.1741 70.5317 68.3184 71.6753 69.7418 71.6753C71.1652 71.6753 72.3095 70.5317 72.3095 69.1091Z" fill="black"/>
<path d="M65.9181 69.1091C65.9181 67.7145 64.7738 66.543 63.3504 66.543C61.927 66.543 60.7827 67.6866 60.7827 69.1091C60.7827 70.5317 61.927 71.6753 63.3504 71.6753C64.7738 71.6753 65.9181 70.5317 65.9181 69.1091Z" fill="black"/>
<path d="M85.0922 69.1091C85.0922 67.7145 83.9479 66.543 82.5245 66.543C81.1011 66.543 79.9568 67.6866 79.9568 69.1091C79.9568 70.5317 81.1011 71.6753 82.5245 71.6753C83.9479 71.6753 85.0922 70.5317 85.0922 69.1091Z" fill="black"/>
<defs>
<filter id="filter0_d_0_1" x="0" y="0" width="145" height="145" filterUnits="userSpaceOnUse" color-interpolation-filters="sRGB">
<feFlood flood-opacity="0" result="BackgroundImageFix"/>
<feColorMatrix in="SourceAlpha" type="matrix" values="0 0 0 0 0 0 0 0 0 0 0 0 0 0 0 0 0 0 127 0" result="hardAlpha"/>
<feOffset/>
<feGaussianBlur stdDeviation="2.5"/>
<feComposite in2="hardAlpha" operator="out"/>
<feColorMatrix type="matrix" values="0 0 0 0 0 0 0 0 0 0 0 0 0 0 0 0 0 0 0.25 0"/>
<feBlend mode="normal" in2="BackgroundImageFix" result="effect1_dropShadow_0_1"/>
<feBlend mode="normal" in="SourceGraphic" in2="effect1_dropShadow_0_1" result="shape"/>
</filter>
</defs>
</svg>
