<svg width="145" height="145" viewBox="0 0 145 145" fill="none" xmlns="http://www.w3.org/2000/svg">
<g filter="url(#filter0_d_0_1)">
<circle cx="72.5" cy="72.5" r="67.5" fill="white"/>
</g>
<path fill-rule="evenodd" clip-rule="evenodd" d="M80.91 46.6687C82.214 50.9548 86.1228 54.0788 90.7237 54.0788C96.3858 54.0788 101 49.3464 101 43.5394C101 37.7324 96.3858 33 90.7237 33C85.91 33 81.8539 36.4198 80.7459 41.0125H59.9316C50.6109 41.0125 43.0183 48.7992 43.0183 58.3582C43.0183 67.9171 50.6109 75.7039 59.9316 75.7039H61.8103C62.9786 80.2072 66.9922 83.5395 71.7436 83.5395C76.495 83.5395 80.5084 80.2072 81.6769 75.7039H83.9042C90.1917 75.7039 95.3024 80.9453 95.3024 87.3934C95.3024 93.8416 90.1917 99.083 83.9042 99.083H63.0111C61.6337 94.9248 57.7877 91.9214 53.2766 91.9214C47.6144 91.9214 43 96.6535 43 102.461C43 108.268 47.6144 113 53.2766 113C58.1765 113 62.2918 109.456 63.3112 104.739H83.9042C93.2249 104.739 100.817 96.9523 100.817 87.3934C100.817 77.8343 93.2249 70.0477 83.9042 70.0477H81.6092C80.3596 65.6709 76.4071 62.4607 71.7436 62.4607C67.0801 62.4607 63.1273 65.6709 61.878 70.0477H59.9316C53.6442 70.0477 48.5335 64.8062 48.5335 58.3582C48.5335 51.9101 53.6442 46.6687 59.9316 46.6687H80.91ZM90.7237 38.6749C88.0947 38.6749 85.9623 40.862 85.9623 43.5581C85.9623 46.2542 88.0947 48.4413 90.7237 48.4413C93.3521 48.4413 95.4851 46.2542 95.4851 43.5581C95.4851 40.862 93.3521 38.6749 90.7237 38.6749ZM66.9821 73.0188C66.9821 70.3227 69.1146 68.1356 71.7436 68.1356C74.3725 68.1356 76.5051 70.3227 76.5051 73.0188C76.5051 75.715 74.3725 77.902 71.7436 77.902C69.1146 77.902 66.9821 75.715 66.9821 73.0188ZM48.5152 102.479C48.5152 99.7832 50.6477 97.5963 53.2766 97.5963C55.9056 97.5963 58.0382 99.7832 58.0382 102.479C58.0382 105.176 55.9056 107.362 53.2766 107.362C50.6477 107.362 48.5152 105.176 48.5152 102.479Z" fill="black"/>
<defs>
<filter id="filter0_d_0_1" x="0" y="0" width="145" height="145" filterUnits="userSpaceOnUse" color-interpolation-filters="sRGB">
<feFlood flood-opacity="0" result="BackgroundImageFix"/>
<feColorMatrix in="SourceAlpha" type="matrix" values="0 0 0 0 0 0 0 0 0 0 0 0 0 0 0 0 0 0 127 0" result="hardAlpha"/>
<feOffset/>
<feGaussianBlur stdDeviation="2.5"/>
<feComposite in2="hardAlpha" operator="out"/>
<feColorMatrix type="matrix" values="0 0 0 0 0 0 0 0 0 0 0 0 0 0 0 0 0 0 0.25 0"/>
<feBlend mode="normal" in2="BackgroundImageFix" result="effect1_dropShadow_0_1"/>
<feBlend mode="normal" in="SourceGraphic" in2="effect1_dropShadow_0_1" result="shape"/>
</filter>
</defs>
</svg>
