<svg width="13" height="13" viewBox="0 0 13 13" fill="none" xmlns="http://www.w3.org/2000/svg">
<g clip-path="url(#clip0_213_311)">
<path d="M4.29589 5.40243L6.61944 3.13684L8.94423 5.40363L10.2962 4.0853L6.61944 0.5L2.94389 4.0841L4.29589 5.40243Z" fill="#F3BA2F"/>
<path d="M3.34112 6.33296L1.98914 5.01465L0.637088 6.33302L1.98907 7.65133L3.34112 6.33296Z" fill="#F3BA2F"/>
<path d="M4.29589 7.26429L6.61945 9.52988L8.94413 7.26318L10.2969 8.58078L10.2962 8.58151L6.61945 12.1667L2.94379 8.58271L2.9419 8.58087L4.29589 7.26429Z" fill="#F3BA2F"/>
<path d="M11.2499 7.65236L12.6019 6.33398L11.25 5.01568L9.89791 6.33405L11.2499 7.65236Z" fill="#F3BA2F"/>
<path d="M7.99082 6.3324H7.99139L6.61945 4.99463L5.60556 5.98326H5.60547L5.48904 6.09688L5.24873 6.3312L5.24684 6.33305L5.24873 6.33498L6.61945 7.67156L7.99139 6.33378L7.99205 6.33305L7.99082 6.3324Z" fill="#F3BA2F"/>
</g>
<defs>
<clipPath id="clip0_213_311">
<rect width="11.9647" height="11.6667" fill="white" transform="translate(0.688751 0.5)"/>
</clipPath>
</defs>
</svg>
