<svg width="16" height="15" viewBox="0 0 16 15" fill="none" xmlns="http://www.w3.org/2000/svg">
<path d="M9.5 4.5C9.5 4.22386 9.27614 4 9 4C8.72386 4 8.5 4.22386 8.5 4.5V6H7C6.72386 6 6.5 6.22386 6.5 6.5C6.5 6.77614 6.72386 7 7 7H8.5V8.5C8.5 8.77614 8.72386 9 9 9C9.27614 9 9.5 8.77614 9.5 8.5V7H11C11.2761 7 11.5 6.77614 11.5 6.5C11.5 6.22386 11.2761 6 11 6H9.5V4.5Z" fill="white"/>
<path d="M1 0C0.723858 0 0.5 0.223858 0.5 0.5C0.5 0.776142 0.723858 1 1 1H2.10961L2.51131 2.6068L4.00856 10.5921C4.05291 10.8286 4.25939 11 4.5 11H5.5C4.39543 11 3.5 11.8954 3.5 13C3.5 14.1046 4.39543 15 5.5 15C6.60457 15 7.5 14.1046 7.5 13C7.5 11.8954 6.60457 11 5.5 11H12.5C11.3954 11 10.5 11.8954 10.5 13C10.5 14.1046 11.3954 15 12.5 15C13.6046 15 14.5 14.1046 14.5 13C14.5 11.8954 13.6046 11 12.5 11H13.5C13.7406 11 13.9471 10.8286 13.9914 10.5921L15.4914 2.59214C15.5188 2.44595 15.4797 2.29514 15.3848 2.18068C15.2898 2.06622 15.1487 2 15 2H3.39039L2.98507 0.378732C2.92943 0.156149 2.72943 0 2.5 0H1ZM4.91496 10L3.60246 3H14.3975L13.085 10H4.91496ZM6.5 13C6.5 13.5523 6.05228 14 5.5 14C4.94772 14 4.5 13.5523 4.5 13C4.5 12.4477 4.94772 12 5.5 12C6.05228 12 6.5 12.4477 6.5 13ZM13.5 13C13.5 13.5523 13.0523 14 12.5 14C11.9477 14 11.5 13.5523 11.5 13C11.5 12.4477 11.9477 12 12.5 12C13.0523 12 13.5 12.4477 13.5 13Z" fill="white"/>
</svg>
