<svg width="14" height="14" viewBox="0 0 14 14" fill="none" xmlns="http://www.w3.org/2000/svg">
<path d="M6.75276 0.833496C5.45124 0.833496 4.17896 1.20983 3.09679 1.9149C2.01462 2.61997 1.17117 3.62212 0.673099 4.79461C0.175031 5.9671 0.0447142 7.25728 0.298627 8.50199C0.55254 9.7467 1.17928 10.89 2.09959 11.7874C3.0199 12.6848 4.19244 13.2959 5.46895 13.5435C6.74546 13.7911 8.06859 13.664 9.27103 13.1784C10.4735 12.6927 11.5012 11.8703 12.2243 10.8151C12.9474 9.75985 13.3333 8.51926 13.3333 7.25016C13.3333 5.54836 12.64 3.91625 11.4059 2.71289C10.1718 1.50954 8.49803 0.833496 6.75276 0.833496ZM6.44769 10.406C6.08911 10.6562 5.65991 10.7921 5.21898 10.7951C4.46106 10.7951 3.7612 10.3895 3.23341 9.65152C2.75889 8.94452 2.49571 8.12262 2.47338 7.27795C2.47299 7.26216 2.47739 7.24661 2.48603 7.23324C2.49467 7.21987 2.50716 7.20929 2.52194 7.20281L3.03707 6.9774C3.04918 6.97203 3.06249 6.96973 3.07576 6.97071C3.08903 6.97169 3.10183 6.97591 3.11298 6.98299C3.12413 6.99007 3.13328 6.99978 3.13957 7.01121C3.14585 7.02265 3.14908 7.03544 3.14896 7.04842C3.14896 7.89347 3.37802 8.68398 3.79393 9.27377C4.18344 9.82547 4.68801 10.1291 5.21581 10.1291C5.5017 10.1284 5.78105 10.0457 6.01912 9.89135C6.03589 9.88096 6.05605 9.87709 6.07561 9.88053C6.09516 9.88396 6.11268 9.89444 6.12468 9.90988C6.22556 10.0445 6.33596 10.1721 6.45508 10.2917C6.46265 10.2995 6.46849 10.3088 6.47224 10.3189C6.47599 10.329 6.47757 10.3397 6.47688 10.3504C6.47618 10.3612 6.47323 10.3716 6.46821 10.3812C6.46319 10.3907 6.4562 10.3992 6.44769 10.406ZM10.2637 9.65152C9.74431 10.3895 9.03917 10.7951 8.28126 10.7951C7.52334 10.7951 6.82242 10.3895 6.29991 9.65152C5.80694 8.95263 5.5346 8.02831 5.5346 7.05048C5.5346 6.14572 6.06873 5.43859 6.75064 5.43859C7.43256 5.43859 7.96563 6.14572 7.96563 7.05048C7.97475 7.84027 7.78327 8.61998 7.40828 9.32009C7.402 9.3312 7.39308 9.34068 7.38227 9.34773C7.37145 9.35478 7.35906 9.3592 7.34613 9.36061C7.3332 9.36202 7.32012 9.36039 7.30797 9.35584C7.29582 9.3513 7.28497 9.34398 7.27633 9.3345C7.21301 9.26491 7.15448 9.19133 7.1011 9.11423C7.03761 9.02621 6.97979 8.93442 6.92798 8.8394C6.9225 8.82869 6.91965 8.81689 6.91965 8.80492C6.91965 8.79295 6.9225 8.78115 6.92798 8.77044C7.16856 8.22764 7.29009 7.64178 7.28478 7.05048C7.28478 6.60273 7.05677 6.10146 6.75064 6.10146C6.44452 6.10146 6.21546 6.60273 6.21546 7.05048C6.21546 7.89553 6.44452 8.68604 6.86043 9.27583C7.24994 9.82753 7.75451 10.1312 8.28126 10.1312C8.808 10.1312 9.31363 9.82239 9.70314 9.27583C10.119 8.68604 10.3481 7.89553 10.3481 7.05048C10.3481 6.20542 10.119 5.41492 9.70314 4.8241C9.5831 4.65288 9.44121 4.49723 9.2809 4.36091C9.27071 4.35221 9.26294 4.34113 9.25832 4.32871C9.2537 4.31629 9.25238 4.30293 9.25449 4.28987C9.2566 4.27682 9.26206 4.2645 9.27037 4.25407C9.27868 4.24363 9.28957 4.23542 9.30202 4.23019L9.81503 4.00477C9.8299 3.99815 9.84651 3.99618 9.86258 3.99913C9.87864 4.00207 9.89338 4.0098 9.90476 4.02124C10.0372 4.15289 10.1574 4.29585 10.2637 4.4484C10.7566 5.14833 11.029 6.07161 11.029 7.05048C11.029 8.02934 10.7566 8.95263 10.2637 9.65152Z" fill="#A566FF"/>
</svg>
