<svg width="18" height="16" viewBox="0 0 18 16" fill="none" xmlns="http://www.w3.org/2000/svg">
<path d="M6.60714 6.4375H17.3214C17.4196 6.4375 17.5 6.35714 17.5 6.25892V5.00892C17.5 4.91071 17.4196 4.83035 17.3214 4.83035H6.60714C6.50893 4.83035 6.42857 4.91071 6.42857 5.00892V6.25892C6.42857 6.35714 6.50893 6.4375 6.60714 6.4375ZM6.42857 10.9911C6.42857 11.0893 6.50893 11.1696 6.60714 11.1696H17.3214C17.4196 11.1696 17.5 11.0893 17.5 10.9911V9.74107C17.5 9.64285 17.4196 9.5625 17.3214 9.5625H6.60714C6.50893 9.5625 6.42857 9.64285 6.42857 9.74107V10.9911ZM17.6786 0.142853H0.178571C0.0803571 0.142853 0 0.22321 0 0.321424V1.57142C0 1.66964 0.0803571 1.75 0.178571 1.75H17.6786C17.7768 1.75 17.8571 1.66964 17.8571 1.57142V0.321424C17.8571 0.22321 17.7768 0.142853 17.6786 0.142853ZM17.6786 14.25H0.178571C0.0803571 14.25 0 14.3304 0 14.4286V15.6786C0 15.7768 0.0803571 15.8571 0.178571 15.8571H17.6786C17.7768 15.8571 17.8571 15.7768 17.8571 15.6786V14.4286C17.8571 14.3304 17.7768 14.25 17.6786 14.25ZM0.0758929 8.15401L3.56473 10.9018C3.6942 11.0045 3.88616 10.9129 3.88616 10.7478V5.25223C3.88616 5.08705 3.69643 4.99553 3.56473 5.09821L0.0758929 7.84598C0.0524335 7.86422 0.0334505 7.88757 0.0203925 7.91427C0.00733439 7.94096 0.000546319 7.97028 0.000546319 8C0.000546319 8.02971 0.00733439 8.05903 0.0203925 8.08573C0.0334505 8.11242 0.0524335 8.13578 0.0758929 8.15401Z" fill="white"/>
</svg>
