<svg width="30" height="27" viewBox="0 0 30 27" fill="none" xmlns="http://www.w3.org/2000/svg">
<path d="M7.04462 11.1999C7.13045 12.2726 7.97735 13.1088 9.49947 13.2078V14H10.1747V13.2023C11.7483 13.0923 12.6696 12.2506 12.6696 11.0293C12.6696 9.91809 11.9658 9.34597 10.7069 9.0489L10.1747 8.92237V6.76589C10.8499 6.84291 11.2791 7.21149 11.3821 7.72311H12.5666C12.4808 6.68888 11.5938 5.8802 10.1747 5.79218V5H9.49947V5.80868C8.15474 5.94071 7.23917 6.74939 7.23917 7.89364C7.23917 8.90587 7.92013 9.54951 9.05314 9.81357L9.49947 9.92359V12.2121C8.80708 12.1076 8.3493 11.728 8.24629 11.1999H7.04462ZM9.49375 8.76284C8.82997 8.6088 8.46946 8.29523 8.46946 7.82213C8.46946 7.29401 8.85858 6.89792 9.49947 6.7824V8.76284H9.49375ZM10.272 10.1051C11.0788 10.2922 11.4508 10.5947 11.4508 11.1284C11.4508 11.739 10.9873 12.1571 10.1747 12.2341V10.0831L10.272 10.1051Z" fill="white"/>
<path d="M9.85712 17.375C5.50787 17.375 1.98212 13.8492 1.98212 9.5C1.98212 5.15076 5.50787 1.625 9.85712 1.625C14.2064 1.625 17.7321 5.15076 17.7321 9.5C17.7321 13.8492 14.2064 17.375 9.85712 17.375ZM9.85712 18.5C14.8277 18.5 18.8571 14.4706 18.8571 9.5C18.8571 4.52944 14.8277 0.5 9.85712 0.5C4.88655 0.5 0.857117 4.52944 0.857117 9.5C0.857117 14.4706 4.88655 18.5 9.85712 18.5Z" fill="white"/>
<path d="M9.85712 15.6875C6.43985 15.6875 3.66962 12.9173 3.66962 9.5C3.66962 6.08274 6.43985 3.3125 9.85712 3.3125C13.2744 3.3125 16.0446 6.08274 16.0446 9.5C16.0446 12.9173 13.2744 15.6875 9.85712 15.6875ZM9.85712 16.25C13.585 16.25 16.6071 13.2279 16.6071 9.5C16.6071 5.77208 13.585 2.75 9.85712 2.75C6.12919 2.75 3.10712 5.77208 3.10712 9.5C3.10712 13.2279 6.12919 16.25 9.85712 16.25Z" fill="white"/>
<rect x="9.85712" y="6.5" width="20" height="20" rx="10" fill="#1A1A1A"/>
<path d="M11.3571 16.5C11.3571 11.8056 15.1627 8 19.8571 8C24.5515 8 28.3571 11.8056 28.3571 16.5C28.3571 21.1944 24.5515 25 19.8571 25C15.1627 25 11.3571 21.1944 11.3571 16.5ZM19.3259 9.14384C18.6146 9.36136 17.907 10.0158 17.3207 11.1152C17.1686 11.4004 17.028 11.7101 16.9009 12.0413C17.6502 12.2085 18.4658 12.3149 19.3259 12.3462V9.14384ZM15.8712 11.7607C16.023 11.3526 16.1943 10.9693 16.3832 10.6152C16.573 10.2592 16.785 9.92569 17.0173 9.62387C16.106 10.0007 15.2859 10.5533 14.5993 11.2396C14.9834 11.4349 15.4096 11.6101 15.8712 11.7607ZM15.0848 15.9687C15.1234 14.8319 15.285 13.7509 15.5485 12.7731C14.9434 12.5762 14.385 12.3382 13.8864 12.0645C13.0639 13.1698 12.5412 14.5113 12.4383 15.9687H15.0848ZM16.5726 13.0563C16.3362 13.9356 16.1861 14.92 16.148 15.9687H19.3259V13.4093C18.3592 13.3765 17.4315 13.2547 16.5726 13.0563ZM20.3884 13.4093V15.9687H23.5662C23.5281 14.92 23.378 13.9356 23.1416 13.0563C22.2827 13.2547 21.355 13.3765 20.3884 13.4093ZM16.148 17.0312C16.1861 18.0799 16.3362 19.0644 16.5726 19.9437C17.4315 19.7453 18.3592 19.6235 19.3259 19.5906V17.0312H16.148ZM20.3884 17.0312V19.5906C21.355 19.6235 22.2827 19.7453 23.1416 19.9437C23.378 19.0644 23.5281 18.0799 23.5662 17.0312H20.3884ZM16.9009 20.9586C17.028 21.2899 17.1686 21.5996 17.3207 21.8847C17.907 22.9842 18.6146 23.6386 19.3259 23.8561V20.6538C18.4658 20.685 17.6502 20.7915 16.9009 20.9586ZM17.0173 23.3761C16.785 23.0743 16.573 22.7408 16.3832 22.3848C16.1943 22.0307 16.023 21.6474 15.8712 21.2393C15.4096 21.3899 14.9834 21.5651 14.5993 21.7604C15.2859 22.4466 16.106 22.9993 17.0173 23.3761ZM15.5485 20.2269C15.285 19.2491 15.1234 18.1681 15.0848 17.0312H12.4383C12.5412 18.4887 13.0639 19.8302 13.8864 20.9355C14.385 20.6618 14.9434 20.4238 15.5485 20.2269ZM22.6969 23.3761C23.6082 22.9993 24.4283 22.4466 25.1149 21.7604C24.7309 21.5651 24.3046 21.3899 23.8431 21.2393C23.6912 21.6474 23.5199 22.0307 23.3311 22.3848C23.1412 22.7408 22.9292 23.0743 22.6969 23.3761ZM20.3884 20.6538V23.8561C21.0996 23.6386 21.8072 22.9842 22.3936 21.8847C22.5456 21.5996 22.6862 21.2899 22.8133 20.9586C22.0641 20.7915 21.2485 20.685 20.3884 20.6538ZM24.1657 20.2269C24.7708 20.4238 25.3292 20.6618 25.8279 20.9355C26.6503 19.8302 27.1731 18.4887 27.2759 17.0312H24.6294C24.5908 18.1681 24.4292 19.2491 24.1657 20.2269ZM27.2759 15.9687C27.1731 14.5113 26.6503 13.1698 25.8279 12.0645C25.3292 12.3382 24.7708 12.5762 24.1657 12.7731C24.4292 13.7509 24.5908 14.8319 24.6294 15.9687H27.2759ZM23.3311 10.6152C23.5199 10.9693 23.6912 11.3526 23.8431 11.7607C24.3046 11.6101 24.7309 11.4349 25.1149 11.2396C24.4283 10.5533 23.6082 10.0007 22.6969 9.62387C22.9292 9.92568 23.1412 10.2592 23.3311 10.6152ZM22.8133 12.0413C22.6862 11.7101 22.5456 11.4004 22.3936 11.1152C21.8072 10.0158 21.0996 9.36136 20.3884 9.14384V12.3462C21.2485 12.3149 22.0641 12.2085 22.8133 12.0413Z" fill="white"/>
</svg>
