<svg width="178" height="65" viewBox="0 0 178 65" fill="none" xmlns="http://www.w3.org/2000/svg">
<mask id="mask0_71_438" style="mask-type:luminance" maskUnits="userSpaceOnUse" x="0" y="0" width="178" height="65">
<path d="M177.968 0H0V64.8231H177.968V0Z" fill="white"/>
</mask>
<g mask="url(#mask0_71_438)">
<path d="M19.4563 64.8231H60.963C61.5533 64.8231 62.1352 64.6661 62.6596 64.365C63.184 64.0643 63.6354 63.6287 63.9762 63.0946C64.3171 62.5604 64.5374 61.9436 64.6188 61.2958C64.7002 60.648 64.64 59.9879 64.4432 59.371L48.6866 9.91359C48.4332 9.11878 47.9646 8.43009 47.3444 7.94175C46.7242 7.45341 45.9831 7.1892 45.2224 7.18536H3.7157C3.1236 7.18195 2.53946 7.33641 2.01255 7.63567C1.48564 7.93489 1.03143 8.37017 0.688244 8.90476C0.345055 9.43935 0.122957 10.0575 0.0406904 10.7072C-0.0415767 11.3568 0.0184012 12.0188 0.215563 12.6374L15.9762 62.0948C16.2304 62.8925 16.7016 63.5832 17.3248 64.0718C17.9481 64.5604 18.6928 64.8231 19.4563 64.8231Z" fill="white"/>
<path opacity="0.94" d="M26.9235 57.6333H68.4302C69.0213 57.6342 69.6044 57.4777 70.1296 57.177C70.6548 56.8763 71.107 56.4403 71.4486 55.9053C71.7898 55.3707 72.0106 54.753 72.0916 54.1039C72.1726 53.4552 72.1119 52.7942 71.9144 52.1769L64.4671 28.8167L56.1538 2.72823C55.9 1.93022 55.429 1.23917 54.8056 0.750471C54.1822 0.261776 53.4371 -0.000448571 52.6736 1.46931e-06H11.1669C10.5761 -0.000553247 9.99392 0.155969 9.46906 0.456419C8.94424 0.75687 8.49218 1.19248 8.15082 1.72664C7.80943 2.26081 7.58877 2.87794 7.50731 3.52619C7.42585 4.17445 7.486 4.83489 7.68272 5.45204L15.126 28.8167L23.4393 54.9051C23.6943 55.7032 24.1662 56.3939 24.7902 56.8825C25.4141 57.3711 26.1594 57.6333 26.9235 57.6333Z" fill="#EA414B"/>
<path d="M89.0918 22.1089C90.0141 20.4723 90.4847 18.5726 90.4448 16.6436C90.4847 14.7146 90.0141 12.8149 89.0918 11.1783C88.1639 9.59679 86.8528 8.33703 85.3083 7.54358C83.5207 6.68594 81.5931 6.24341 79.645 6.24341C77.697 6.24341 75.7693 6.68594 73.9818 7.54358C72.4372 8.33703 71.1258 9.59679 70.1983 11.1783C69.2759 12.8149 68.8054 14.7146 68.8453 16.6436C68.8054 18.5726 69.2759 20.4723 70.1983 22.1089C71.1258 23.6904 72.4372 24.9501 73.9818 25.7436C75.7693 26.6013 77.697 27.0438 79.645 27.0438C81.5931 27.0438 83.5207 26.6013 85.3083 25.7436C86.8528 24.9501 88.1639 23.6904 89.0918 22.1089ZM84.1948 19.2569C83.7646 20.0055 83.1436 20.5963 82.4108 20.9548C80.6368 21.7508 78.6533 21.7508 76.8792 20.9548C76.1465 20.5963 75.5255 20.0055 75.0953 19.2569C74.667 18.4694 74.4511 17.5627 74.4727 16.6436C74.4511 15.7245 74.667 14.8178 75.0953 14.0303C75.5255 13.2817 76.1465 12.6909 76.8792 12.3324C78.6533 11.5364 80.6368 11.5364 82.4108 12.3324C83.1436 12.6909 83.7646 13.2817 84.1948 14.0303C84.623 14.8178 84.839 15.7245 84.8174 16.6436C84.8414 17.5671 84.6254 18.4788 84.1948 19.2701V19.2569Z" fill="white"/>
<path d="M97.1058 25.7569C98.8339 26.6594 100.728 27.1044 102.637 27.0569C104.418 27.0944 106.186 26.7147 107.826 25.9426C109.264 25.264 110.521 24.1857 111.474 22.812C112.394 21.4444 112.964 19.8264 113.122 18.1294H107.534C107.395 18.862 107.095 19.5454 106.66 20.1192C106.219 20.681 105.654 21.1062 105.02 21.3528C104.258 21.6435 103.455 21.7827 102.649 21.7641C101.739 21.7912 100.836 21.5775 100.015 21.1406C99.3041 20.7487 98.713 20.1335 98.3151 19.3719C97.8988 18.5365 97.6925 17.593 97.7164 16.6392C97.6933 15.6814 97.9 14.7339 98.3151 13.8933C98.7082 13.1276 99.3009 12.5112 100.015 12.1246C100.838 11.6965 101.74 11.4875 102.649 11.5144C103.458 11.4964 104.262 11.6464 105.02 11.9566C105.65 12.2178 106.213 12.6459 106.66 13.2035C107.093 13.7635 107.393 14.4334 107.534 15.1535H113.122C112.963 13.462 112.393 11.8498 111.474 10.4886C110.518 9.13054 109.265 8.06516 107.834 7.39332C106.194 6.62123 104.426 6.24149 102.645 6.27903C100.734 6.22323 98.8379 6.66072 97.1058 7.55692C95.5912 8.35824 94.3129 9.61844 93.4181 11.1916C92.5181 12.8371 92.0611 14.7333 92.101 16.6569C92.0619 18.5756 92.5177 20.4669 93.4141 22.109C94.3081 23.6876 95.5884 24.9527 97.1058 25.7569Z" fill="white"/>
<path d="M131.752 26.6057V21.671H120.649L121.064 18.8323H130.914V14.4812H121.064L120.649 11.6425H131.632V6.70776H114.726L116.067 16.6567L114.726 26.6057H131.752Z" fill="white"/>
<path d="M139.842 23.0241H148.67L150.023 26.6057H155.985L147.94 6.70776H140.564L132.542 26.6057H138.481L139.842 23.0241ZM141.713 18.0894L144.264 11.3772L146.802 18.0894H141.713Z" fill="white"/>
<path d="M162.906 13.3404L170.976 26.6057H177.968V6.70776H172.556V19.5707L164.726 6.70776H157.518V26.6057H162.906V13.3404Z" fill="white"/>
<path d="M97.3971 48.8517H102.418C101.802 49.495 101.066 49.981 100.263 50.2755C99.1751 50.6642 98.0369 50.8508 96.8943 50.8282C95.7313 50.8592 94.5751 50.6182 93.5019 50.1207C92.582 49.6834 91.8097 48.9361 91.2948 47.985C90.7509 46.9061 90.4843 45.6826 90.5246 44.4476C90.4815 43.2445 90.7221 42.0496 91.223 40.981C91.6764 40.0834 92.3752 39.3682 93.2185 38.9382C94.1903 38.4618 95.2456 38.2322 96.3076 38.266C97.1952 38.2538 98.0796 38.3834 98.9337 38.6507C99.6521 38.8704 100.323 39.2495 100.905 39.765C101.415 40.2165 101.781 40.836 101.951 41.5337H108.488C108.21 39.7778 107.522 38.1331 106.493 36.7626C105.379 35.325 103.965 34.2108 102.374 33.5171C100.428 32.6831 98.353 32.2834 96.2677 32.3409C94.6441 32.3254 93.0282 32.591 91.4784 33.1279C90.0536 33.6204 88.7266 34.4082 87.5672 35.4494C86.4394 36.4705 85.5402 37.7677 84.9411 39.2388C84.2894 40.8878 83.9693 42.6744 84.0032 44.4741C83.9693 46.2725 84.2894 48.0575 84.9411 49.7051C85.535 51.1665 86.4174 52.4616 87.5233 53.4945C88.6448 54.5297 89.9343 55.3176 91.3228 55.816C92.8039 56.3466 94.352 56.611 95.9085 56.5986C97.4706 56.6335 99.0243 56.3439 100.49 55.7452C101.714 55.2363 102.821 54.4328 103.731 53.3928C103.767 53.353 103.795 53.3088 103.827 53.269L104.122 56.0724H108.68V43.8375H97.3971V48.8517Z" fill="white"/>
<path d="M119.021 32.8494L109.662 56.0637H116.59L118.186 51.8807H128.475L130.072 56.0637H137.016L127.629 32.8494H119.021ZM120.362 46.1147L123.335 38.2881L126.296 46.1147H120.362Z" fill="white"/>
<path d="M134.274 39.2565H142.041V56.0591H148.55V39.2565H156.317V32.845H134.274V39.2565Z" fill="white"/>
<path d="M165.013 50.3064L165.5 46.9945H176.99V41.9184H165.5L165.013 38.6065H177.828V32.845H158.105L159.669 44.452L158.105 56.0591H177.968V50.3064H165.013Z" fill="white"/>
</g>
</svg>
