<svg width="151" height="54" viewBox="0 0 151 54" fill="none" xmlns="http://www.w3.org/2000/svg">
<path d="M16.5039 54.0002H51.721C52.2218 54.0002 52.7155 53.8694 53.1605 53.6186C53.6054 53.3681 53.9884 53.0053 54.2776 52.5603C54.5668 52.1153 54.7537 51.6015 54.8228 51.0619C54.8918 50.5222 54.8407 49.9723 54.6738 49.4584L41.3048 8.2586C41.0898 7.59649 40.6923 7.02279 40.166 6.61598C39.6398 6.20918 39.011 5.98909 38.3656 5.98589H3.1485C2.64613 5.98305 2.15051 6.11171 1.70344 6.36101C1.25638 6.61027 0.870994 6.97288 0.57981 7.41821C0.288625 7.86355 0.100182 8.3785 0.0303816 8.91968C-0.0394194 9.46086 0.0114699 10.0123 0.178755 10.5276L13.5511 51.7275C13.7668 52.392 14.1666 52.9673 14.6954 53.3744C15.2242 53.7814 15.8561 54.0002 16.5039 54.0002Z" fill="black"/>
<path opacity="0.94" d="M22.8393 48.0106H58.0564C58.5579 48.0114 59.0527 47.881 59.4983 47.6305C59.9439 47.38 60.3276 47.0168 60.6174 46.5711C60.907 46.1258 61.0942 45.6112 61.163 45.0705C61.2317 44.5301 61.1802 43.9794 61.0126 43.4652L54.6939 24.0053L47.6403 2.27272C47.4249 1.60794 47.0254 1.03227 46.4964 0.62517C45.9675 0.218069 45.3353 -0.000373676 44.6875 1.22399e-06H9.4704C8.96916 -0.000460875 8.47518 0.129927 8.02985 0.380214C7.58456 0.6305 7.201 0.993375 6.91137 1.43836C6.62171 1.88334 6.43448 2.39743 6.36537 2.93745C6.29626 3.47746 6.34729 4.02764 6.5142 4.54175L12.8296 24.0053L19.8831 45.7379C20.0995 46.4028 20.4999 46.9782 21.0293 47.3852C21.5587 47.7922 22.1911 48.0106 22.8393 48.0106Z" fill="#EA414B"/>
<path d="M75.5872 18.4177C76.3698 17.0544 76.769 15.4718 76.7352 13.8649C76.769 12.258 76.3698 10.6754 75.5872 9.3121C74.7999 7.99466 73.6875 6.94523 72.377 6.28427C70.8603 5.56982 69.2248 5.20117 67.5719 5.20117C65.9191 5.20117 64.2835 5.56982 62.7668 6.28427C61.4564 6.94523 60.3436 7.99466 59.5567 9.3121C58.7741 10.6754 58.3749 12.258 58.4087 13.8649C58.3749 15.4718 58.7741 17.0544 59.5567 18.4177C60.3436 19.7351 61.4564 20.7846 62.7668 21.4455C64.2835 22.16 65.9191 22.5286 67.5719 22.5286C69.2248 22.5286 70.8603 22.16 72.377 21.4455C73.6875 20.7846 74.7999 19.7351 75.5872 18.4177ZM71.4323 16.0418C71.0672 16.6655 70.5403 17.1576 69.9186 17.4563C68.4134 18.1194 66.7305 18.1194 65.2253 17.4563C64.6035 17.1576 64.0766 16.6655 63.7116 16.0418C63.3483 15.3858 63.1651 14.6305 63.1834 13.8649C63.1651 13.0993 63.3483 12.3439 63.7116 11.6879C64.0766 11.0643 64.6035 10.5721 65.2253 10.2735C66.7305 9.61039 68.4134 9.61039 69.9186 10.2735C70.5403 10.5721 71.0672 11.0643 71.4323 11.6879C71.7956 12.3439 71.9788 13.0993 71.9605 13.8649C71.9809 14.6342 71.7977 15.3937 71.4323 16.0529V16.0418Z" fill="black"/>
<path d="M82.3866 21.4563C83.8528 22.2081 85.4596 22.5788 87.08 22.5392C88.5909 22.5705 90.091 22.2542 91.4821 21.611C92.7028 21.0457 93.7688 20.1474 94.5771 19.0031C95.3583 17.8638 95.8416 16.5159 95.9756 15.1023H91.2349C91.1164 15.7126 90.8617 16.2819 90.4933 16.7598C90.1191 17.2279 89.6396 17.582 89.1015 17.7875C88.4548 18.0297 87.7738 18.1456 87.0901 18.1301C86.3177 18.1527 85.5517 17.9747 84.8552 17.6107C84.2517 17.2842 83.7502 16.7718 83.4126 16.1373C83.0594 15.4414 82.8844 14.6554 82.9047 13.8609C82.885 13.063 83.0605 12.2737 83.4126 11.5735C83.7462 10.9357 84.249 10.4221 84.8552 10.1001C85.5534 9.74342 86.3187 9.56933 87.0901 9.59177C87.7758 9.57677 88.4582 9.70172 89.1015 9.96012C89.6362 10.1777 90.114 10.5343 90.4933 10.9989C90.86 11.4653 91.115 12.0234 91.2349 12.6233H95.9756C95.8409 11.2142 95.3577 9.8712 94.5771 8.7372C93.7661 7.60592 92.7032 6.71842 91.4889 6.15875C90.0978 5.51558 88.5977 5.19924 87.0867 5.23051C85.4654 5.18403 83.8562 5.54847 82.3866 6.29504C81.1015 6.96256 80.0169 8.01236 79.2577 9.32287C78.4941 10.6936 78.1064 12.2732 78.1402 13.8757C78.107 15.474 78.4937 17.0495 79.2543 18.4174C80.0128 19.7325 81.0991 20.7863 82.3866 21.4563Z" fill="black"/>
<path d="M111.783 22.1636V18.0528H102.362L102.714 15.688H111.072V12.0635H102.714L102.362 9.69867H111.681V5.58789H97.3369L98.4747 13.8757L97.3369 22.1636H111.783Z" fill="black"/>
<path d="M118.647 19.18H126.137L127.285 22.1636H132.344L125.517 5.58789H119.26L112.453 22.1636H117.492L118.647 19.18ZM120.235 15.0692L122.399 9.47766L124.552 15.0692H120.235Z" fill="black"/>
<path d="M138.216 11.1131L145.063 22.1636H150.996V5.58789H146.404V16.3032L139.76 5.58789H133.645V22.1636H138.216V11.1131Z" fill="black"/>
<path d="M82.6334 40.6951H86.8934C86.3709 41.2311 85.7464 41.6359 85.0648 41.8812C84.142 42.205 83.1763 42.3604 82.2068 42.3417C81.22 42.3674 80.239 42.1667 79.3285 41.7523C78.5479 41.388 77.8927 40.7655 77.4559 39.9732C76.9943 39.0744 76.7681 38.0552 76.8023 37.0264C76.7657 36.0242 76.9699 35.0288 77.3949 34.1386C77.7796 33.3908 78.3725 32.795 79.088 32.4368C79.9126 32.04 80.8079 31.8487 81.709 31.8769C82.4621 31.8667 83.2125 31.9746 83.9372 32.1974C84.5467 32.3804 85.1159 32.6962 85.61 33.1256C86.0421 33.5017 86.3529 34.0178 86.4972 34.599H92.0438C91.8075 33.1363 91.224 31.7662 90.3507 30.6245C89.406 29.4269 88.2062 28.4987 86.8561 27.9209C85.2053 27.2261 83.4445 26.8932 81.6751 26.941C80.2976 26.9282 78.9265 27.1494 77.6116 27.5967C76.4027 28.0069 75.2768 28.6632 74.2931 29.5305C73.3361 30.3812 72.5732 31.4618 72.0649 32.6873C71.512 34.061 71.2404 35.5492 71.2692 37.0485C71.2404 38.5466 71.512 40.0336 72.0649 41.406C72.5688 42.6234 73.3175 43.7023 74.2558 44.5628C75.2074 45.4251 76.3015 46.0815 77.4796 46.4966C78.7362 46.9387 80.0497 47.1589 81.3704 47.1486C82.6957 47.1777 84.014 46.9364 85.2578 46.4377C86.2964 46.0137 87.2354 45.3444 88.0074 44.4781C88.0379 44.4449 88.0616 44.4081 88.0887 44.3749L88.3393 46.7103H92.2064V36.5181H82.6334V40.6951Z" fill="black"/>
<path d="M100.98 27.3647L93.0396 46.7031H98.9181L100.273 43.2185H109.002L110.357 46.7031H116.249L108.284 27.3647H100.98ZM102.118 38.4152L104.641 31.8954L107.153 38.4152H102.118Z" fill="black"/>
<path d="M113.923 32.7019H120.513V46.6991H126.035V32.7019H132.625V27.3608H113.923V32.7019Z" fill="black"/>
<path d="M140.004 41.9068L140.417 39.1479H150.166V34.9194H140.417L140.004 32.1604H150.877V27.3608H134.142L135.47 37.0299L134.142 46.6991H150.996V41.9068H140.004Z" fill="black"/>
</svg>
