<svg width="86" height="33" viewBox="0 0 86 33" fill="none" xmlns="http://www.w3.org/2000/svg">
<mask id="mask0_124_245" style="mask-type:luminance" maskUnits="userSpaceOnUse" x="0" y="0" width="86" height="33">
<path d="M86 0H0V33H86V0Z" fill="white"/>
</mask>
<g mask="url(#mask0_124_245)">
<path d="M9.4022 33.0002H29.4596C29.7448 33.0002 30.026 32.9203 30.2794 32.767C30.5329 32.6139 30.751 32.3922 30.9157 32.1203C31.0804 31.8484 31.1868 31.5343 31.2262 31.2046C31.2655 30.8748 31.2364 30.5387 31.1413 30.2247L23.5272 5.04702C23.4048 4.6424 23.1783 4.2918 22.8786 4.0432C22.5789 3.79459 22.2208 3.66009 21.8532 3.65814H1.79581C1.50969 3.6564 1.22742 3.73503 0.972796 3.88738C0.718177 4.03971 0.498687 4.2613 0.332847 4.53345C0.167007 4.8056 0.0596819 5.12029 0.0199279 5.45101C-0.0198263 5.78173 0.00915706 6.11875 0.104432 6.43365L7.72047 31.6113C7.84332 32.0174 8.07101 32.369 8.3722 32.6178C8.67338 32.8665 9.03324 33.0002 9.4022 33.0002Z" fill="white"/>
<path opacity="0.94" d="M13.0103 29.3398H33.0677C33.3533 29.3403 33.6351 29.2606 33.8889 29.1075C34.1427 28.9545 34.3612 28.7325 34.5263 28.4601C34.6912 28.188 34.7978 27.8735 34.837 27.5431C34.8761 27.2128 34.8468 26.8763 34.7514 26.5621L31.1526 14.6699L27.1353 1.38888C27.0127 0.982632 26.7851 0.630831 26.4839 0.382048C26.1826 0.133264 25.8225 -0.000228357 25.4536 7.47993e-07H5.39619C5.11071 -0.000281646 4.82937 0.0794001 4.57574 0.232353C4.32213 0.385305 4.10368 0.607063 3.93873 0.878995C3.77375 1.15093 3.66712 1.46509 3.62776 1.79511C3.5884 2.12512 3.61746 2.46134 3.71252 2.77551L7.30935 14.6699L11.3266 27.951C11.4498 28.3573 11.6779 28.7089 11.9794 28.9576C12.2809 29.2064 12.6411 29.3398 13.0103 29.3398Z" fill="#EA414B"/>
<path d="M43.0521 11.255C43.4978 10.4219 43.7251 9.45475 43.7059 8.47274C43.7251 7.49076 43.4978 6.52363 43.0521 5.69048C42.6037 4.88538 41.9701 4.24406 41.2237 3.84014C40.3599 3.40353 39.4284 3.17825 38.4871 3.17825C37.5457 3.17825 36.6142 3.40353 35.7504 3.84014C35.004 4.24406 34.3703 4.88538 33.9221 5.69048C33.4764 6.52363 33.249 7.49076 33.2683 8.47274C33.249 9.45475 33.4764 10.4219 33.9221 11.255C34.3703 12.0601 35.004 12.7014 35.7504 13.1053C36.6142 13.542 37.5457 13.7672 38.4871 13.7672C39.4284 13.7672 40.3599 13.542 41.2237 13.1053C41.9701 12.7014 42.6037 12.0601 43.0521 11.255ZM40.6857 9.8031C40.4778 10.1842 40.1777 10.485 39.8236 10.6675C38.9663 11.0727 38.0078 11.0727 37.1506 10.6675C36.7965 10.485 36.4964 10.1842 36.2885 9.8031C36.0815 9.40221 35.9772 8.94062 35.9876 8.47274C35.9772 8.00487 36.0815 7.54327 36.2885 7.14239C36.4964 6.76127 36.7965 6.46051 37.1506 6.27799C38.0078 5.87277 38.9663 5.87277 39.8236 6.27799C40.1777 6.46051 40.4778 6.76127 40.6857 7.14239C40.8926 7.54327 40.9969 8.00487 40.9865 8.47274C40.9981 8.94289 40.8938 9.40703 40.6857 9.80985V9.8031Z" fill="white"/>
<path d="M46.9247 13.1121C47.7598 13.5715 48.6749 13.7981 49.5977 13.7739C50.4583 13.793 51.3126 13.5997 52.1049 13.2067C52.8002 12.8612 53.4073 12.3123 53.8676 11.613C54.3126 10.9167 54.5878 10.093 54.6642 9.22912H51.9641C51.8966 9.60209 51.7516 9.94999 51.5418 10.2421C51.3286 10.5281 51.0556 10.7445 50.7491 10.8701C50.3807 11.0181 49.9929 11.089 49.6035 11.0795C49.1636 11.0933 48.7274 10.9845 48.3306 10.7621C47.987 10.5625 47.7013 10.2494 47.5091 9.86166C47.3079 9.43637 47.2082 8.95605 47.2198 8.47053C47.2086 7.98291 47.3085 7.50056 47.5091 7.07264C47.699 6.68285 47.9854 6.36904 48.3306 6.17223C48.7283 5.95427 49.1642 5.84788 49.6035 5.86159C49.9941 5.85243 50.3827 5.92878 50.7491 6.08669C51.0536 6.21968 51.3257 6.43761 51.5418 6.72148C51.7506 7.00653 51.8958 7.3476 51.9641 7.71418H54.6642C54.5874 6.85308 54.3122 6.03235 53.8676 5.33935C53.4057 4.64802 52.8004 4.10566 52.1088 3.76364C51.3165 3.37059 50.4621 3.17727 49.6016 3.19638C48.6782 3.16797 47.7617 3.39069 46.9247 3.84693C46.1928 4.25486 45.5751 4.8964 45.1427 5.69727C44.7078 6.53494 44.4869 7.50027 44.5062 8.47953C44.4873 9.45627 44.7076 10.4191 45.1407 11.255C45.5727 12.0587 46.1914 12.7027 46.9247 13.1121Z" fill="white"/>
<path d="M63.6668 13.5444V11.0323H58.3015L58.5021 9.58714H63.2618V7.37214H58.5021L58.3015 5.92698H63.609V3.41484H55.4395L56.0875 8.47964L55.4395 13.5444H63.6668Z" fill="white"/>
<path d="M67.5761 11.7211H71.8422L72.496 13.5444H75.3773L71.4892 3.41484H67.9252L64.0487 13.5444H66.9185L67.5761 11.7211ZM68.4806 9.20897L69.713 5.79192L70.9396 9.20897H68.4806Z" fill="white"/>
<path d="M78.7215 6.79137L82.6211 13.5444H86V3.41484H83.3848V9.96306L79.6009 3.41484H76.1179V13.5444H78.7215V6.79137Z" fill="white"/>
<path d="M47.0655 24.8691H49.4916C49.1941 25.1967 48.8384 25.444 48.4502 25.594C47.9247 25.7918 47.3746 25.8868 46.8225 25.8753C46.2605 25.8911 45.7018 25.7684 45.1832 25.5152C44.7386 25.2925 44.3654 24.9121 44.1166 24.4279C43.8538 23.8787 43.7249 23.2558 43.7444 22.6271C43.7236 22.0147 43.8399 21.4064 44.0819 20.8624C44.301 20.4054 44.6387 20.0413 45.0462 19.8224C45.5158 19.5799 46.0258 19.463 46.539 19.4802C46.9679 19.474 47.3953 19.5399 47.808 19.6761C48.1551 19.7879 48.4793 19.9809 48.7607 20.2433C49.0068 20.4732 49.1838 20.7885 49.266 21.1437H52.425C52.2904 20.2498 51.9581 19.4126 51.4607 18.7149C50.9227 17.983 50.2394 17.4158 49.4704 17.0626C48.5302 16.6381 47.5274 16.4346 46.5197 16.4639C45.7351 16.456 44.9542 16.5912 44.2054 16.8645C43.5169 17.1152 42.8756 17.5163 42.3153 18.0463C41.7703 18.5662 41.3358 19.2265 41.0463 19.9754C40.7314 20.8149 40.5767 21.7244 40.5931 22.6406C40.5767 23.5561 40.7314 24.4648 41.0463 25.3036C41.3333 26.0475 41.7597 26.7069 42.2941 27.2327C42.8361 27.7597 43.4592 28.1608 44.1301 28.4145C44.8458 28.6846 45.594 28.8192 46.3461 28.8129C47.101 28.8307 47.8518 28.6833 48.5601 28.3785C49.1516 28.1194 49.6864 27.7104 50.1262 27.1809C50.1435 27.1607 50.157 27.1382 50.1724 27.1179L50.3152 28.545H52.5176V22.3165H47.0655V24.8691Z" fill="white"/>
<path d="M57.5146 16.7228L52.9921 28.5407H56.3401L57.1116 26.4112H62.0835L62.8549 28.5407H66.2107L61.6746 16.7228H57.5146ZM58.1626 23.4759L59.5994 19.4916L61.0305 23.4759H58.1626Z" fill="white"/>
<path d="M64.8857 19.9845H68.6388V28.5383H71.7843V19.9845H75.5374V16.7205H64.8857V19.9845Z" fill="white"/>
<path d="M79.7398 25.6097L79.9751 23.9237H85.5275V21.3396H79.9751L79.7398 19.6536H85.9325V16.7205H76.4014L77.1574 22.6293L76.4014 28.5383H86V25.6097H79.7398Z" fill="white"/>
</g>
</svg>
