<svg xmlns="http://www.w3.org/2000/svg" viewBox="0 0 230.89 69.02"><defs><style>.cls-1{fill:#e000cf;}.cls-2{opacity:0.94;}.cls-3{fill:#000;}</style></defs><g id="Layer_2" data-name="Layer 2"><g id="Layer_1-2" data-name="Layer 1"><path class="cls-1" d="M67.05,69H1.56A1.56,1.56,0,0,1,0,67.46V2A1.56,1.56,0,0,1,1.56.4H67.05A1.56,1.56,0,0,1,68.61,2v65.5A1.56,1.56,0,0,1,67.05,69ZM2,67H66.61V2.4H2Z"/><path class="cls-1" d="M62.66,64.35H6a1.56,1.56,0,0,1-1.56-1.56V39.2a1,1,0,0,1,1-1H11v2H6.39V62.35H62.22V40.17H57.61v-2h5.61a1,1,0,0,1,1,1V62.79A1.56,1.56,0,0,1,62.66,64.35Z"/><path class="cls-1" d="M63.22,30.7H57.61v-2h4.61V6.52H6.39V28.67H11v2H5.39a1,1,0,0,1-1-1V6.08A1.56,1.56,0,0,1,6,4.52H62.66a1.56,1.56,0,0,1,1.56,1.56V29.7A1,1,0,0,1,63.22,30.7Z"/><path class="cls-1" d="M49.18,50.87H19.43a1.56,1.56,0,0,1-1.56-1.56V19.56A1.56,1.56,0,0,1,19.43,18H49.18a1.56,1.56,0,0,1,1.56,1.56V49.31A1.56,1.56,0,0,1,49.18,50.87Zm-29.31-2H48.74V20H19.87Z"/><rect class="cls-1" x="1" y="33.59" width="10" height="2"/><rect class="cls-1" x="61.61" y="29.3" width="2" height="10" transform="translate(28.17 96.83) rotate(-89.87)"/><g class="cls-2"><path class="cls-3" d="M86.85,54.72a3.51,3.51,0,0,1,4.09,4.09v5.12a4.27,4.27,0,0,1-1,3.12,4.32,4.32,0,0,1-3.12,1H80.3a3.51,3.51,0,0,1-4.09-4.09V58.81a4.32,4.32,0,0,1,1-3.12,4.27,4.27,0,0,1,3.12-1ZM80.5,58.4a1.42,1.42,0,0,0-1.42,1.43v3.08a1.41,1.41,0,0,0,1.42,1.42h6.15a1.42,1.42,0,0,0,1.43-1.42V59.83a1.43,1.43,0,0,0-1.43-1.43Z"/><path class="cls-3" d="M90.35,41.63a.2.2,0,0,1,.2.18q.39,4.44.39,7.39a3.37,3.37,0,0,1-3.89,3.88H80.51a4.27,4.27,0,0,1-3.12-1,4.27,4.27,0,0,1-1-3.12V41.83a.19.19,0,0,1,.19-.2h2.47a.2.2,0,0,1,.2.2V48A1.43,1.43,0,0,0,80.7,49.4h6.35a1,1,0,0,0,.75-.27,1,1,0,0,0,.28-.71c0-.29,0-.6,0-.94s0-.7,0-1.06,0-.74-.05-1.12,0-.86-.08-1.45-.08-1.21-.13-2a.2.2,0,0,1,.2-.21Z"/><path class="cls-3" d="M90.74,28.83v11a.2.2,0,0,1-.2.19H76.61a.19.19,0,0,1-.19-.19v-11a.19.19,0,0,1,.19-.19h2.47a.2.2,0,0,1,.2.19v7.28a.2.2,0,0,0,.2.2h2.36a.2.2,0,0,0,.2-.2V30.47a.19.19,0,0,1,.2-.19h2.47a.19.19,0,0,1,.2.19v5.64a.19.19,0,0,0,.19.2h2.58a.2.2,0,0,0,.19-.2V28.83a.2.2,0,0,1,.2-.19h2.47A.2.2,0,0,1,90.74,28.83Z"/><path class="cls-3" d="M90.74,24.58v3.57a.2.2,0,0,1-.27.18L76.54,23.06a.2.2,0,0,1-.12-.18V19.06a.21.21,0,0,1,.12-.19L90.47,13.6a.2.2,0,0,1,.27.19v3.56a.22.22,0,0,1-.13.19l-2.3.82a.21.21,0,0,0-.13.19v4.84a.19.19,0,0,0,.13.18l2.3.83A.21.21,0,0,1,90.74,24.58Zm-5.22-2.25V19.61a.2.2,0,0,0-.26-.19l-4,1.36a.19.19,0,0,0,0,.37l4,1.37A.2.2,0,0,0,85.52,22.33Z"/><path class="cls-3" d="M90.74.2V3.77a.19.19,0,0,1-.1.17L82.79,8.43a.2.2,0,0,0,.09.37h7.66a.19.19,0,0,1,.2.19v3.29a.2.2,0,0,1-.2.2H76.61a.19.19,0,0,1-.19-.2V8.71a.19.19,0,0,1,.1-.18l7.85-4.48a.2.2,0,0,0-.1-.37H76.61a.19.19,0,0,1-.19-.19V.2a.19.19,0,0,1,.19-.2H90.54A.2.2,0,0,1,90.74.2Z"/></g><path class="cls-3" d="M141.77,39h-8a.11.11,0,0,0-.11.08L122.9,67.44a.12.12,0,0,0,.11.17h7.72a.12.12,0,0,0,.11-.08L132,64.2l3.29-9.48,2.32-6.82a.12.12,0,0,1,.23,0L141,57a.13.13,0,0,1-.12.16H138a.13.13,0,0,0-.11.09l-1.76,5.07a.12.12,0,0,0,.11.16h6.58a.13.13,0,0,1,.11.08l1.78,5a.13.13,0,0,0,.12.08h7.71a.13.13,0,0,0,.12-.17L141.89,39.05A.13.13,0,0,0,141.77,39Z"/><rect class="cls-3" x="158.43" y="48.4" width="7.36" height="19.21" rx="0.12"/><rect class="cls-3" x="149.84" y="38.97" width="24.55" height="5.73" rx="0.12"/><rect class="cls-1" x="103.6" y="9.94" width="7.36" height="19.13" rx="0.12"/><path class="cls-1" d="M95,.55V6a.13.13,0,0,0,.12.12h24.31a.12.12,0,0,0,.12-.12V.55a.12.12,0,0,0-.12-.12H95.13A.13.13,0,0,0,95,.55Z"/><rect class="cls-3" x="108.92" y="51.24" width="12.68" height="4.82" rx="0.12"/><path class="cls-3" d="M114.24,59.48V62a.12.12,0,0,1-.11.12q-3.84.19-8.48.2a1.91,1.91,0,0,1-2.05-2v-13a2.58,2.58,0,0,1,2.58-2.57H119a.12.12,0,0,0,.12-.13V39.09A.12.12,0,0,0,119,39H104.42q-4.29,0-6.24,1.94t-1.94,6.24V60.24q0,4,1.88,5.89T104,68a167.13,167.13,0,0,0,17.48-1,.13.13,0,0,0,.12-.13v-7.4a.13.13,0,0,0-.13-.13h-7.12A.13.13,0,0,0,114.24,59.48Z"/><rect class="cls-3" x="188.32" y="50.22" width="8.37" height="5.73" rx="0.12"/><path class="cls-3" d="M199.83,39H177.37a.12.12,0,0,0-.12.12v28.4a.12.12,0,0,0,.12.12h22.46a.13.13,0,0,0,.13-.12V62a.12.12,0,0,0-.13-.12h-15.1a.12.12,0,0,1-.12-.12V56h0V50.22h0v-5.4a.12.12,0,0,1,.12-.12h15.1a.13.13,0,0,0,.13-.13V39.09A.12.12,0,0,0,199.83,39Z"/><path class="cls-1" d="M133.24,23.75h-1.69A2.57,2.57,0,0,1,129,21.18V8.33a2.57,2.57,0,0,1,2.58-2.58h1.69a.12.12,0,0,0,.13-.12V.14a.13.13,0,0,0-.13-.12h-3.45q-4.3,0-6.24,2c-1.3,1.29-1.94,3.37-1.94,6.23V21.3c0,2.86.64,4.94,1.94,6.24s3.37,1.94,6.24,1.94h3.45a.12.12,0,0,0,.13-.12V23.87A.13.13,0,0,0,133.24,23.75Z"/><path class="cls-1" d="M146.26,2Q144.31,0,140,0h-2.83a.12.12,0,0,0-.12.12V5.63a.12.12,0,0,0,.12.12h1.07a2.58,2.58,0,0,1,2.58,2.58V21.18a2.58,2.58,0,0,1-2.58,2.57h-1.07a.12.12,0,0,0-.12.12v5.49a.12.12,0,0,0,.12.12H140q4.29,0,6.24-1.94t1.94-6.24V8.2Q148.2,3.91,146.26,2Z"/><path class="cls-1" d="M159.66,11.68h0V.55a.13.13,0,0,0-.13-.12h-7.12a.13.13,0,0,0-.12.12V29a.12.12,0,0,0,.12.12h7.12a.12.12,0,0,0,.13-.12V17.41h0Z"/><path class="cls-1" d="M177.29.43h-7.5a.11.11,0,0,0-.1.06l-6.31,11.12a.14.14,0,0,0,0,.06v5.75a.14.14,0,0,0,0,.06L169.65,29a.11.11,0,0,0,.1.06h7.5a.12.12,0,0,0,.1-.18l-7.84-14.28a.13.13,0,0,1,0-.12L177.39.61A.12.12,0,0,0,177.29.43Z"/><rect class="cls-1" x="191.04" y="11.68" width="8.34" height="5.73" rx="0.12"/><path class="cls-1" d="M202.53.43H180.07a.12.12,0,0,0-.12.12V29a.12.12,0,0,0,.12.12h22.46a.12.12,0,0,0,.13-.12V23.47a.13.13,0,0,0-.13-.13h-15.1a.12.12,0,0,1-.12-.12V17.41h0V11.68h0V6.28a.12.12,0,0,1,.12-.12h15.1a.13.13,0,0,0,.13-.12V.55A.13.13,0,0,0,202.53.43Z"/><path class="cls-1" d="M220.61,12.53l-6.87-12a.11.11,0,0,0-.11-.06h-7.58a.12.12,0,0,0-.12.12V29a.12.12,0,0,0,.12.12h7.12a.12.12,0,0,0,.12-.12V12.35a.12.12,0,0,1,.23-.06l1.86,3.26a.13.13,0,0,0,.17,0l5-2.9A.11.11,0,0,0,220.61,12.53Z"/><path class="cls-1" d="M223.64.43a.13.13,0,0,0-.12.12V17.62l-1-1.67a.11.11,0,0,0-.16,0l-5,2.9a.12.12,0,0,0,0,.16l5.74,10a.11.11,0,0,0,.1.06h7.58a.12.12,0,0,0,.13-.12V.55a.13.13,0,0,0-.13-.12Z"/></g></g></svg>