<svg width="35" height="27" viewBox="0 0 35 27" fill="none" xmlns="http://www.w3.org/2000/svg">
<path fill-rule="evenodd" clip-rule="evenodd" d="M24.5 7C30.0234 7 34.5 11.4766 34.5 17C34.5 22.5234 30.0234 27 24.5 27C18.9766 27 14.5 22.5234 14.5 17C14.5 11.4766 18.9766 7 24.5 7Z" fill="url(#paint0_radial_217_563)"/>
<path d="M20.8557 14.7227C22.8674 12.7578 26.1331 12.7578 28.1448 14.7227L28.387 14.9609C28.4885 15.0586 28.4885 15.2187 28.387 15.3164L27.5588 16.125C27.5081 16.1758 27.426 16.1758 27.3752 16.125L27.0432 15.8008C25.637 14.4297 23.3635 14.4297 21.9573 15.8008L21.6018 16.1484C21.551 16.1992 21.469 16.1992 21.4182 16.1484L20.5901 15.3398C20.4885 15.2422 20.4885 15.082 20.5901 14.9844L20.8557 14.7227ZM29.8596 16.3945L30.5979 17.1133C30.6995 17.2109 30.6995 17.3711 30.5979 17.4688L27.2737 20.7148C27.1721 20.8125 27.0081 20.8125 26.9104 20.7148L24.551 18.4102C24.5276 18.3867 24.4846 18.3867 24.4612 18.4102L22.1018 20.7148C22.0002 20.8125 21.8362 20.8125 21.7385 20.7148L18.4026 17.4688C18.301 17.3711 18.301 17.2109 18.4026 17.1133L19.1409 16.3945C19.2424 16.2969 19.4065 16.2969 19.5042 16.3945L21.8635 18.6992C21.887 18.7227 21.9299 18.7227 21.9534 18.6992L24.3127 16.3945C24.4143 16.2969 24.5784 16.2969 24.676 16.3945L27.0354 18.6992C27.0588 18.7227 27.1018 18.7227 27.1252 18.6992L29.4846 16.3945C29.594 16.2969 29.7581 16.2969 29.8596 16.3945Z" fill="white"/>
<path d="M19.4272 2.45135L12.5565 7.55431L13.8271 4.54363L19.4272 2.45135Z" fill="#E2761B" stroke="#E2761B" stroke-linecap="round" stroke-linejoin="round"/>
<path d="M3.56587 2.45135L10.3813 7.60264L9.1729 4.54363L3.56587 2.45135ZM16.9551 14.28L15.1252 17.0835L19.0404 18.1607L20.166 14.3421L16.9551 14.28ZM2.84082 14.3421L3.95946 18.1607L7.87472 17.0835L6.04484 14.28L2.84082 14.3421Z" fill="#E4761B" stroke="#E4761B" stroke-linecap="round" stroke-linejoin="round"/>
<path d="M7.65377 9.543L6.56274 11.1933L10.4504 11.366L10.3123 7.18832L7.65377 9.543ZM15.3393 9.543L12.6462 7.13998L12.5565 11.366L16.4372 11.1933L15.3393 9.543ZM7.87473 17.0835L10.2087 15.9441L8.19237 14.3697L7.87473 17.0835ZM12.7843 15.9441L15.1252 17.0835L14.8007 14.3697L12.7843 15.9441Z" fill="#E4761B" stroke="#E4761B" stroke-linecap="round" stroke-linejoin="round"/>
<path d="M15.1252 17.0835L12.7844 15.9441L12.9708 17.4702L12.9501 18.1124L15.1252 17.0835ZM7.87476 17.0835L10.0499 18.1124L10.0361 17.4702L10.2087 15.9441L7.87476 17.0835Z" fill="#D7C1B3" stroke="#D7C1B3" stroke-linecap="round" stroke-linejoin="round"/>
<path d="M10.0845 13.3616L8.13721 12.7885L9.51134 12.1601L10.0845 13.3616ZM12.9087 13.3616L13.4818 12.1601L14.8629 12.7885L12.9087 13.3616Z" fill="#233447" stroke="#233447" stroke-linecap="round" stroke-linejoin="round"/>
<path d="M7.8748 17.0835L8.20625 14.28L6.04492 14.3421L7.8748 17.0835ZM14.7938 14.28L15.1253 17.0835L16.9552 14.3421L14.7938 14.28ZM16.4373 11.1933L12.5565 11.366L12.9156 13.3616L13.4887 12.1601L14.8698 12.7884L16.4373 11.1933ZM8.1372 12.7884L9.51824 12.1601L10.0845 13.3616L10.4504 11.366L6.56281 11.1933L8.1372 12.7884Z" fill="#CD6116" stroke="#CD6116" stroke-linecap="round" stroke-linejoin="round"/>
<path d="M6.56274 11.1933L8.19237 14.3697L8.13713 12.7884L6.56274 11.1933ZM14.8697 12.7884L14.8007 14.3697L16.4372 11.1933L14.8697 12.7884ZM10.4504 11.366L10.0844 13.3616L10.5401 15.7163L10.6437 12.6158L10.4504 11.366ZM12.5565 11.366L12.37 12.6089L12.4529 15.7163L12.9155 13.3616L12.5565 11.366Z" fill="#E4751F" stroke="#E4751F" stroke-linecap="round" stroke-linejoin="round"/>
<path d="M12.9156 13.3616L12.453 15.7163L12.7844 15.9441L14.8007 14.3697L14.8698 12.7885L12.9156 13.3616ZM8.13721 12.7885L8.19245 14.3697L10.2088 15.9441L10.5402 15.7163L10.0845 13.3616L8.13721 12.7885Z" fill="#F6851B" stroke="#F6851B" stroke-linecap="round" stroke-linejoin="round"/>
<path d="M12.9501 18.1124L12.9708 17.4702L12.7982 17.3183H10.1949L10.0361 17.4702L10.0499 18.1124L7.87476 17.0835L8.63433 17.705L10.1742 18.7753H12.8189L14.3657 17.705L15.1252 17.0835L12.9501 18.1124Z" fill="#C0AD9E" stroke="#C0AD9E" stroke-linecap="round" stroke-linejoin="round"/>
<path d="M12.7844 15.9441L12.453 15.7163H10.5402L10.2088 15.9441L10.0361 17.4702L10.195 17.3183H12.7982L12.9708 17.4702L12.7844 15.9441Z" fill="#161616" stroke="#161616" stroke-linecap="round" stroke-linejoin="round"/>
<path d="M19.7171 7.88576L20.3041 5.06843L19.4271 2.45135L12.7843 7.38168L15.3392 9.54301L18.9507 10.5995L19.7517 9.6673L19.4064 9.41871L19.9588 8.91463L19.5307 8.58318L20.0831 8.16196L19.7171 7.88576ZM2.6958 5.06843L3.28274 7.88576L2.90986 8.16196L3.46228 8.58318L3.04106 8.91463L3.59348 9.41871L3.24822 9.6673L4.04232 10.5995L7.65374 9.54301L10.2087 7.38168L3.56586 2.45135L2.6958 5.06843Z" fill="#763D16" stroke="#763D16" stroke-linecap="round" stroke-linejoin="round"/>
<path d="M18.9507 10.5995L15.3393 9.543L16.4372 11.1933L14.8006 14.3697L16.9551 14.3421H20.166L18.9507 10.5995ZM7.65375 9.543L4.04233 10.5995L2.84082 14.3421H6.04484L8.19236 14.3697L6.56273 11.1933L7.65375 9.543ZM12.5565 11.366L12.7843 7.38167L13.8339 4.54362H9.1729L10.2087 7.38167L10.4504 11.366L10.5332 12.6227L10.5401 15.7163H12.4529L12.4667 12.6227L12.5565 11.366Z" fill="#F6851B" stroke="#F6851B" stroke-linecap="round" stroke-linejoin="round"/>
<defs>
<radialGradient id="paint0_radial_217_563" cx="0" cy="0" r="1" gradientUnits="userSpaceOnUse" gradientTransform="translate(14.5001 17.0003) scale(20)">
<stop stop-color="#5D9DF6"/>
<stop offset="1" stop-color="#006FFF"/>
</radialGradient>
</defs>
</svg>
