<svg width="18" height="15" viewBox="0 0 18 15" fill="none" xmlns="http://www.w3.org/2000/svg">
<mask id="mask0_213_343" style="mask-type:luminance" maskUnits="userSpaceOnUse" x="0" y="0" width="18" height="15">
<path d="M17.3709 0.5H0.6203V14.5H17.3709V0.5Z" fill="white"/>
</mask>
<g mask="url(#mask0_213_343)">
<path d="M8.88392 0.744141C5.54498 0.744141 2.84032 3.00654 2.83809 5.79721C2.83809 6.11641 2.87382 6.43561 2.94529 6.74921L3.72698 6.30307C5.10053 5.51534 7.32724 5.51534 8.69855 6.30307L9.51821 6.77347L9.96266 7.02921C11.2 7.73854 13.2056 7.73854 14.4406 7.02921L14.8047 6.82201C15.4747 4.08734 13.3664 1.41614 10.0944 0.854274C9.69688 0.785207 9.29264 0.751607 8.88616 0.751607L8.88392 0.744141Z" fill="#F2B705"/>
</g>
<mask id="mask1_213_343" style="mask-type:luminance" maskUnits="userSpaceOnUse" x="0" y="0" width="18" height="15">
<path d="M17.3709 0.5H0.6203V14.5H17.3709V0.5Z" fill="white"/>
</mask>
<g mask="url(#mask1_213_343)">
<path d="M12.2809 8.83277C11.4166 8.84583 10.5679 8.64423 9.84428 8.2541L8.5824 7.5317C7.18206 6.81303 5.41543 6.81303 4.01285 7.5317L3.19766 7.99837C3.03686 8.0917 2.81575 8.05623 2.70408 7.92183C2.59241 7.78743 2.63484 7.60263 2.79565 7.5093L3.61084 7.04263C5.25463 6.18957 7.33616 6.18957 8.97995 7.04263L10.2418 7.76503C11.4903 8.4053 13.0649 8.4053 14.3133 7.76503L14.7913 7.49063C14.9521 7.3973 15.1732 7.43277 15.2849 7.56717C15.3965 7.70157 15.3541 7.88637 15.1933 7.9797L14.7153 8.2541C13.9917 8.64237 13.143 8.84397 12.2809 8.83277Z" fill="#53CBC8"/>
</g>
<mask id="mask2_213_343" style="mask-type:luminance" maskUnits="userSpaceOnUse" x="0" y="0" width="18" height="15">
<path d="M17.3709 0.5H0.6203V14.5H17.3709V0.5Z" fill="white"/>
</mask>
<g mask="url(#mask2_213_343)">
<path d="M6.27082 10.9551V8.09908C6.26859 8.03934 6.27083 7.97961 6.27976 7.91988C6.30209 7.75748 6.46736 7.63428 6.6639 7.63428C6.85374 7.63988 7.00785 7.76121 7.02572 7.91988C7.04135 8.01881 7.04358 8.11961 7.03912 8.21854V13.9119C7.04805 14.0967 6.87608 14.2497 6.65497 14.2572C6.65274 14.2572 6.6505 14.2572 6.64827 14.2572C6.43163 14.2479 6.26636 14.0929 6.27753 13.9119C6.27753 13.9063 6.27753 13.9007 6.27976 13.8969V11.9967L6.27082 10.9551Z" fill="#53CBC8"/>
</g>
<mask id="mask3_213_343" style="mask-type:luminance" maskUnits="userSpaceOnUse" x="0" y="0" width="18" height="15">
<path d="M17.3709 0.5H0.6203V14.5H17.3709V0.5Z" fill="white"/>
</mask>
<g mask="url(#mask3_213_343)">
<path d="M5.55391 9.51745V10.9361C5.55391 11.1788 5.39534 11.3356 5.1787 11.3356C4.96429 11.3356 4.79232 11.1657 4.79008 10.9361V8.09691C4.79008 7.84864 4.96429 7.68064 5.18986 7.69744C5.41544 7.71424 5.54944 7.85611 5.55168 8.10624C5.55391 8.57104 5.55391 9.04331 5.55391 9.51745Z" fill="#53CBC8"/>
</g>
<mask id="mask4_213_343" style="mask-type:luminance" maskUnits="userSpaceOnUse" x="0" y="0" width="18" height="15">
<path d="M17.3709 0.5H0.6203V14.5H17.3709V0.5Z" fill="white"/>
</mask>
<g mask="url(#mask4_213_343)">
<path d="M7.75826 9.51587V8.52094C7.75826 8.28947 7.90566 8.14014 8.12453 8.14014C8.35011 8.14947 8.52655 8.31 8.51538 8.49854C8.51538 8.50227 8.51538 8.50787 8.51538 8.5116C8.52208 9.1892 8.52208 9.8668 8.51538 10.5463C8.51538 10.7777 8.35681 10.9177 8.12677 10.914C7.89896 10.9121 7.76049 10.7703 7.75826 10.5332V9.51587Z" fill="#53CBC8"/>
</g>
<mask id="mask5_213_343" style="mask-type:luminance" maskUnits="userSpaceOnUse" x="0" y="0" width="18" height="15">
<path d="M17.3709 0.5H0.6203V14.5H17.3709V0.5Z" fill="white"/>
</mask>
<g mask="url(#mask5_213_343)">
<path d="M3.31155 9.72135V8.72455C3.31155 8.49308 3.45896 8.34375 3.67783 8.34375C3.90341 8.35308 4.07985 8.51362 4.06868 8.70215C4.06868 8.70588 4.06868 8.71148 4.06868 8.71522C4.07538 9.39468 4.07538 10.0723 4.06868 10.7517C4.06868 10.9832 3.91011 11.1213 3.6823 11.1195C3.45673 11.1176 3.31379 10.9757 3.31155 10.7387V9.72135Z" fill="#53CBC8"/>
</g>
<mask id="mask6_213_343" style="mask-type:luminance" maskUnits="userSpaceOnUse" x="0" y="0" width="18" height="15">
<path d="M17.3709 0.5H0.6203V14.5H17.3709V0.5Z" fill="white"/>
</mask>
<g mask="url(#mask6_213_343)">
<path d="M9.60977 8.87402C9.81748 8.87402 9.98498 9.01402 9.98498 9.18762V9.72896C9.98498 9.90256 9.81748 10.0426 9.60977 10.0426C9.40206 10.0426 9.23456 9.90256 9.23456 9.72896V9.18762C9.23679 9.01589 9.4043 8.87402 9.60977 8.87402Z" fill="#53CBC8"/>
</g>
<mask id="mask7_213_343" style="mask-type:luminance" maskUnits="userSpaceOnUse" x="0" y="0" width="18" height="15">
<path d="M17.3709 0.5H0.6203V14.5H17.3709V0.5Z" fill="white"/>
</mask>
<g mask="url(#mask7_213_343)">
<path d="M11.095 9.34961C11.3027 9.34961 11.4702 9.48961 11.4702 9.66321V12.704C11.4702 12.8776 11.3027 13.0176 11.095 13.0176C10.8873 13.0176 10.7198 12.8776 10.7198 12.704V9.66321C10.7198 9.48961 10.8873 9.34961 11.095 9.34961Z" fill="#53CBC8"/>
</g>
<mask id="mask8_213_343" style="mask-type:luminance" maskUnits="userSpaceOnUse" x="0" y="0" width="18" height="15">
<path d="M17.3709 0.5H0.6203V14.5H17.3709V0.5Z" fill="white"/>
</mask>
<g mask="url(#mask8_213_343)">
<path d="M12.5713 9.4668C12.779 9.4668 12.9465 9.6068 12.9465 9.7804V12.3639C12.9465 12.5375 12.779 12.6775 12.5713 12.6775C12.3636 12.6775 12.196 12.5375 12.196 12.3639V9.7804C12.196 9.6068 12.3636 9.4668 12.5713 9.4668Z" fill="#53CBC8"/>
</g>
<mask id="mask9_213_343" style="mask-type:luminance" maskUnits="userSpaceOnUse" x="0" y="0" width="18" height="15">
<path d="M17.3709 0.5H0.6203V14.5H17.3709V0.5Z" fill="white"/>
</mask>
<g mask="url(#mask9_213_343)">
<path d="M14.0654 9.17236C14.2731 9.17236 14.4406 9.31236 14.4406 9.48596V10.6004C14.4406 10.774 14.2731 10.914 14.0654 10.914C13.8577 10.914 13.6902 10.774 13.6902 10.6004V9.48596C13.6902 9.31236 13.86 9.17236 14.0654 9.17236Z" fill="#53CBC8"/>
</g>
</svg>
