<svg width="21" height="21" viewBox="0 0 21 21" fill="none" xmlns="http://www.w3.org/2000/svg">
<path d="M14.6071 8C14.6071 10.0711 12.9282 11.75 10.8571 11.75C8.78605 11.75 7.10712 10.0711 7.10712 8C7.10712 5.92893 8.78605 4.25 10.8571 4.25C12.9282 4.25 14.6071 5.92893 14.6071 8Z" fill="white"/>
<path fill-rule="evenodd" clip-rule="evenodd" d="M0.857117 10.5C0.857117 4.97715 5.33427 0.5 10.8571 0.5C16.38 0.5 20.8571 4.97715 20.8571 10.5C20.8571 16.0228 16.38 20.5 10.8571 20.5C5.33427 20.5 0.857117 16.0228 0.857117 10.5ZM10.8571 1.75C6.02462 1.75 2.10712 5.66751 2.10712 10.5C2.10712 12.5668 2.82369 14.4662 4.02194 15.9634C4.91078 14.5316 6.86291 13 10.8571 13C14.8513 13 16.8035 14.5316 17.6923 15.9634C18.8906 14.4662 19.6071 12.5668 19.6071 10.5C19.6071 5.66751 15.6896 1.75 10.8571 1.75Z" fill="white"/>
</svg>
