<svg width="25" height="25" viewBox="0 0 25 25" fill="none" xmlns="http://www.w3.org/2000/svg">
<path d="M17.1875 9.375C17.1875 11.9638 15.0888 14.0625 12.5 14.0625C9.91117 14.0625 7.8125 11.9638 7.8125 9.375C7.8125 6.78617 9.91117 4.6875 12.5 4.6875C15.0888 4.6875 17.1875 6.78617 17.1875 9.375Z" fill="black"/>
<path fill-rule="evenodd" clip-rule="evenodd" d="M0 12.5C0 5.59644 5.59644 0 12.5 0C19.4036 0 25 5.59644 25 12.5C25 19.4036 19.4036 25 12.5 25C5.59644 25 0 19.4036 0 12.5ZM12.5 1.5625C6.45938 1.5625 1.5625 6.45938 1.5625 12.5C1.5625 15.0835 2.45821 17.4578 3.95603 19.3292C5.06708 17.5394 7.50725 15.625 12.5 15.625C17.4928 15.625 19.9329 17.5394 21.044 19.3292C22.5418 17.4578 23.4375 15.0835 23.4375 12.5C23.4375 6.45938 18.5406 1.5625 12.5 1.5625Z" fill="black"/>
</svg>
