<svg width="14" height="12" viewBox="0 0 14 12" fill="none" xmlns="http://www.w3.org/2000/svg">
<g clip-path="url(#clip0_213_302)">
<path d="M10.5354 3.86361C10.2955 3.73824 9.98705 3.73824 9.71286 3.86361L7.79353 4.89794L6.49112 5.55615L4.60606 6.59048C4.36614 6.71585 4.05768 6.71585 3.78349 6.59048L2.30971 5.77555C2.0698 5.65018 1.89843 5.39943 1.89843 5.11734V3.55018C1.89843 3.29943 2.03552 3.04869 2.30971 2.89197L3.78349 2.10839C4.02341 1.98302 4.33187 1.98302 4.60606 2.10839L6.07983 2.92331C6.31975 3.04869 6.49112 3.29943 6.49112 3.58152V4.61585L7.79353 3.9263V2.86063C7.79353 2.60988 7.65643 2.35913 7.38224 2.20242L4.64033 0.729284C4.40042 0.603911 4.09195 0.603911 3.81776 0.729284L1.00731 2.23376C0.733119 2.35913 0.596024 2.60988 0.596024 2.86063V5.8069C0.596024 6.05764 0.733119 6.30839 1.00731 6.4651L3.78349 7.93824C4.02341 8.06361 4.33187 8.06361 4.60606 7.93824L6.49112 6.93525L7.79353 6.2457L9.67859 5.24272C9.9185 5.11734 10.227 5.11734 10.5012 5.24272L11.9749 6.0263C12.2148 6.15167 12.3862 6.40242 12.3862 6.68451V8.25167C12.3862 8.50242 12.2491 8.75316 11.9749 8.90988L10.5354 9.69346C10.2955 9.81884 9.98705 9.81884 9.71286 9.69346L8.23909 8.90988C7.99917 8.78451 7.8278 8.53376 7.8278 8.25167V7.24869L6.52539 7.93824V8.97257C6.52539 9.22331 6.66249 9.47406 6.93668 9.63078L9.71286 11.1039C9.95278 11.2293 10.2612 11.2293 10.5354 11.1039L13.3116 9.63078C13.5515 9.5054 13.7229 9.25466 13.7229 8.97257V5.99496C13.7229 5.74421 13.5858 5.49346 13.3116 5.33675L10.5354 3.86361Z" fill="#8247E5"/>
</g>
<defs>
<clipPath id="clip0_213_302">
<rect width="13.1611" height="10.5" fill="white" transform="translate(0.596024 0.666504)"/>
</clipPath>
</defs>
</svg>
