<svg width="12" height="11" viewBox="0 0 12 11" fill="none" xmlns="http://www.w3.org/2000/svg">
<path d="M9.05521 3.51582C8.83381 3.38682 8.54581 3.38682 8.30281 3.51582L6.57541 4.50822L5.4024 5.15502L3.675 6.14682C3.4536 6.27642 3.1662 6.27642 2.9226 6.14682L1.5498 5.37042C1.3284 5.24143 1.1736 5.00442 1.1736 4.74522V3.21402C1.1736 2.95542 1.3062 2.71842 1.5498 2.58882L2.8998 1.83402C3.1218 1.70442 3.40981 1.70442 3.6534 1.83402L5.00341 2.58882C5.22541 2.71842 5.38021 2.95542 5.38021 3.21402V4.20642L6.55321 3.53742V2.54562C6.5545 2.41681 6.52002 2.29016 6.4536 2.17977C6.38718 2.06939 6.29143 1.97961 6.17701 1.92042L3.675 0.497224C3.4536 0.367624 3.1662 0.367624 2.9226 0.497224L0.376205 1.92042C0.261781 1.97961 0.166029 2.06939 0.0996094 2.17977C0.0331896 2.29016 -0.00129162 2.41681 4.73434e-06 2.54562V5.41362C4.73434e-06 5.67282 0.132605 5.90982 0.376205 6.03942L2.9226 7.46262C3.144 7.59162 3.432 7.59162 3.675 7.46262L5.4024 6.49182L6.57541 5.82342L8.30281 4.85322C8.52421 4.72362 8.81161 4.72362 9.05521 4.85322L10.4058 5.60802C10.6278 5.73702 10.7826 5.97402 10.7826 6.23322V7.76442C10.7826 8.02303 10.6494 8.26002 10.4058 8.38962L9.05581 9.16602C8.83381 9.29562 8.54581 9.29562 8.30281 9.16602L6.95221 8.41123C6.73021 8.28162 6.57541 8.04462 6.57541 7.78603V6.79362L5.4024 7.46262V8.45442C5.4024 8.71302 5.53501 8.95062 5.7786 9.07962L8.3244 10.5028C8.5464 10.6324 8.8344 10.6324 9.0774 10.5028L11.6238 9.07962C11.8452 8.95062 12 8.71362 12 8.45442V5.58642C12.0014 5.45751 11.967 5.33073 11.9006 5.22023C11.8341 5.10973 11.7383 5.01986 11.6238 4.96062L9.05581 3.51582H9.05521Z" fill="#C4C4C4"/>
</svg>
