<svg width="29" height="27" viewBox="0 0 29 27" fill="none" xmlns="http://www.w3.org/2000/svg">
<path d="M6.1875 11.1999C6.27333 12.2726 7.12023 13.1088 8.64236 13.2078V14H9.31759V13.2023C10.8912 13.0923 11.8125 12.2506 11.8125 11.0293C11.8125 9.91809 11.1087 9.34597 9.84976 9.0489L9.31759 8.92237V6.76589C9.99282 6.84291 10.422 7.21149 10.525 7.72311H11.7095C11.6237 6.68888 10.7367 5.8802 9.31759 5.79218V5H8.64236V5.80868C7.29762 5.94071 6.38206 6.74939 6.38206 7.89364C6.38206 8.90587 7.06301 9.54951 8.19602 9.81357L8.64236 9.92359V12.2121C7.94996 12.1076 7.49218 11.728 7.38918 11.1999H6.1875ZM8.63663 8.76284C7.97285 8.6088 7.61235 8.29523 7.61235 7.82213C7.61235 7.29401 8.00146 6.89792 8.64236 6.7824V8.76284H8.63663ZM9.41486 10.1051C10.2217 10.2922 10.5937 10.5947 10.5937 11.1284C10.5937 11.739 10.1301 12.1571 9.31759 12.2341V10.0831L9.41486 10.1051Z" fill="black"/>
<path d="M9 17.375C4.65076 17.375 1.125 13.8492 1.125 9.5C1.125 5.15076 4.65076 1.625 9 1.625C13.3492 1.625 16.875 5.15076 16.875 9.5C16.875 13.8492 13.3492 17.375 9 17.375ZM9 18.5C13.9706 18.5 18 14.4706 18 9.5C18 4.52944 13.9706 0.5 9 0.5C4.02944 0.5 0 4.52944 0 9.5C0 14.4706 4.02944 18.5 9 18.5Z" fill="black"/>
<path d="M9 15.6875C5.58274 15.6875 2.8125 12.9173 2.8125 9.5C2.8125 6.08274 5.58274 3.3125 9 3.3125C12.4173 3.3125 15.1875 6.08274 15.1875 9.5C15.1875 12.9173 12.4173 15.6875 9 15.6875ZM9 16.25C12.7279 16.25 15.75 13.2279 15.75 9.5C15.75 5.77208 12.7279 2.75 9 2.75C5.27208 2.75 2.25 5.77208 2.25 9.5C2.25 13.2279 5.27208 16.25 9 16.25Z" fill="black"/>
<rect x="9" y="6.5" width="20" height="20" rx="10" fill="#252425"/>
<path d="M10.5 16.5C10.5 11.8056 14.3056 8 19 8C23.6944 8 27.5 11.8056 27.5 16.5C27.5 21.1944 23.6944 25 19 25C14.3056 25 10.5 21.1944 10.5 16.5ZM18.4687 9.14384C17.7575 9.36136 17.0499 10.0158 16.4635 11.1152C16.3115 11.4004 16.1709 11.7101 16.0438 12.0413C16.7931 12.2085 17.6086 12.3149 18.4687 12.3462V9.14384ZM15.014 11.7607C15.1659 11.3526 15.3372 10.9693 15.526 10.6152C15.7159 10.2592 15.9279 9.92569 16.1602 9.62387C15.2489 10.0007 14.4288 10.5533 13.7422 11.2396C14.1262 11.4349 14.5525 11.6101 15.014 11.7607ZM14.2277 15.9687C14.2663 14.8319 14.4279 13.7509 14.6914 12.7731C14.0863 12.5762 13.5279 12.3382 13.0292 12.0645C12.2068 13.1698 11.684 14.5113 11.5812 15.9687H14.2277ZM15.7155 13.0563C15.4791 13.9356 15.329 14.92 15.2909 15.9687H18.4687V13.4093C17.5021 13.3765 16.5744 13.2547 15.7155 13.0563ZM19.5312 13.4093V15.9687H22.7091C22.671 14.92 22.5209 13.9356 22.2845 13.0563C21.4256 13.2547 20.4979 13.3765 19.5312 13.4093ZM15.2909 17.0312C15.329 18.0799 15.4791 19.0644 15.7155 19.9437C16.5744 19.7453 17.5021 19.6235 18.4687 19.5906V17.0312H15.2909ZM19.5312 17.0312V19.5906C20.4979 19.6235 21.4256 19.7453 22.2845 19.9437C22.5209 19.0644 22.671 18.0799 22.7091 17.0312H19.5312ZM16.0438 20.9586C16.1709 21.2899 16.3115 21.5996 16.4635 21.8847C17.0499 22.9842 17.7575 23.6386 18.4687 23.8561V20.6538C17.6086 20.685 16.7931 20.7915 16.0438 20.9586ZM16.1602 23.3761C15.9279 23.0743 15.7159 22.7408 15.526 22.3848C15.3372 22.0307 15.1659 21.6474 15.014 21.2393C14.5525 21.3899 14.1262 21.5651 13.7422 21.7604C14.4288 22.4466 15.2489 22.9993 16.1602 23.3761ZM14.6914 20.2269C14.4279 19.2491 14.2663 18.1681 14.2277 17.0312H11.5812C11.684 18.4887 12.2068 19.8302 13.0292 20.9355C13.5279 20.6618 14.0863 20.4238 14.6914 20.2269ZM21.8398 23.3761C22.7511 22.9993 23.5712 22.4466 24.2578 21.7604C23.8737 21.5651 23.4475 21.3899 22.9859 21.2393C22.8341 21.6474 22.6628 22.0307 22.4739 22.3848C22.2841 22.7408 22.0721 23.0743 21.8398 23.3761ZM19.5312 20.6538V23.8561C20.2425 23.6386 20.9501 22.9842 21.5365 21.8847C21.6885 21.5996 21.8291 21.2899 21.9562 20.9586C21.2069 20.7915 20.3913 20.685 19.5312 20.6538ZM23.3086 20.2269C23.9137 20.4238 24.4721 20.6618 24.9708 20.9355C25.7932 19.8302 26.316 18.4887 26.4188 17.0312H23.7723C23.7337 18.1681 23.5721 19.2491 23.3086 20.2269ZM26.4188 15.9687C26.316 14.5113 25.7932 13.1698 24.9708 12.0645C24.4721 12.3382 23.9137 12.5762 23.3086 12.7731C23.5721 13.7509 23.7337 14.8319 23.7723 15.9687H26.4188ZM22.4739 10.6152C22.6628 10.9693 22.8341 11.3526 22.9859 11.7607C23.4475 11.6101 23.8737 11.4349 24.2578 11.2396C23.5712 10.5533 22.7511 10.0007 21.8398 9.62387C22.0721 9.92568 22.2841 10.2592 22.4739 10.6152ZM21.9562 12.0413C21.8291 11.7101 21.6885 11.4004 21.5365 11.1152C20.9501 10.0158 20.2425 9.36136 19.5312 9.14384V12.3462C20.3913 12.3149 21.2069 12.2085 21.9562 12.0413Z" fill="white"/>
</svg>
